/* XPM */
static char *_b605e36f83345cdc44ef8b08917d444iJbVxkJAbKYZXmBE[] = {
/* columns rows colors chars-per-pixel */
"64 64 8 1 ",
"  c black",
". c #050506",
"X c #07080A",
"o c #0A0C0E",
"O c #0E1013",
"+ c #13171B",
"@ c #14171B",
"# c #272E36",
/* pixels */
"                                                                ",
" XOOOOOOOOOOOOOOOOOOOOOOOOOOOOOOOOOOOOOOOOOOOOOOOOOOOOOOOOOOOO. ",
" @############################################################O ",
" @############################################################O ",
" @############################################################O ",
" @############################################################O ",
" @############################################################O ",
" @############################################################O ",
" @############################################################O ",
" @############################################################O ",
" @############################################################O ",
" @############################################################O ",
" @############################################################O ",
" @############################################################O ",
" @############################################################O ",
" @############################################################O ",
" @############################################################O ",
" @############################################################O ",
" @############################################################O ",
" @############################################################O ",
" @############################################################O ",
" @############################################################O ",
" @############################################################O ",
" @############################################################O ",
" @############################################################O ",
" @############################################################O ",
" @############################################################O ",
" @############################################################O ",
" @############################################################O ",
" @############################################################O ",
" @############################################################O ",
" @############################################################O ",
" @############################################################O ",
" @############################################################O ",
" @############################################################O ",
" @############################################################O ",
" @############################################################O ",
" @############################################################O ",
" @############################################################O ",
" @############################################################O ",
" @############################################################O ",
" @############################################################O ",
" @############################################################O ",
" @############################################################O ",
" @############################################################O ",
" @############################################################O ",
" @############################################################O ",
" @############################################################O ",
" @############################################################O ",
" @############################################################O ",
" @############################################################O ",
" @############################################################O ",
" @############################################################O ",
" @############################################################O ",
" @############################################################O ",
" @############################################################O ",
" @############################################################O ",
" @############################################################O ",
" @############################################################O ",
" @############################################################O ",
" @############################################################O ",
" @############################################################O ",
" o++++++++++++++++++++++++++++++++++++++++++++++++++++++++++++X ",
"                                                                "
};
