/* XPM */
static char *_2ef198f70f542a09a2b49fb743217abR63jV0j3aW0LXhqf[] = {
/* columns rows colors chars-per-pixel */
"64 64 256 2 ",
"   c #020A0E",
".  c #02060D",
"X  c #02190D",
"o  c #020D13",
"O  c #080E15",
"+  c #031315",
"@  c #031B15",
"#  c #031519",
"$  c #041B1B",
"%  c #0A1C1B",
"&  c #0A1817",
"*  c #161B19",
"=  c #271C16",
"-  c #04290E",
";  c #04370D",
":  c #032415",
">  c #032B15",
",  c #03231B",
"<  c #0B231C",
"1  c #042B1A",
"2  c #0B2C1C",
"3  c #0A2714",
"4  c #14271C",
"5  c #04341B",
"6  c #0B341D",
"7  c #043C1A",
"8  c #0C3C1C",
"9  c #063815",
"0  c #13381B",
"q  c #35241C",
"w  c #2D231C",
"e  c #091E20",
"r  c #101D20",
"t  c #062421",
"y  c #0B2522",
"u  c #0C2C23",
"i  c #0B2C27",
"p  c #132C24",
"a  c #122D29",
"s  c #182623",
"d  c #0C3422",
"f  c #0C3C23",
"g  c #0A3728",
"h  c #133B23",
"j  c #13342B",
"k  c #183728",
"l  c #143B32",
"z  c #0D3B32",
"x  c #262C27",
"c  c #26372B",
"v  c #293934",
"b  c #343735",
"n  c #4D2F1D",
"m  c #4E3325",
"M  c #733C23",
"N  c #60341E",
"B  c #04470D",
"V  c #05580E",
"C  c #03421A",
"Z  c #084818",
"A  c #14481C",
"S  c #075718",
"D  c #145A1B",
"F  c #05690E",
"G  c #076816",
"H  c #166819",
"J  c #0A7617",
"K  c #15761B",
"L  c #03780D",
"P  c #0D4826",
"I  c #124C24",
"U  c #184628",
"Y  c #0B5824",
"T  c #185728",
"R  c #174734",
"E  c #195836",
"W  c #24492B",
"Q  c #25562C",
"!  c #274934",
"~  c #374839",
"^  c #295537",
"/  c #35573B",
"(  c #314E2E",
")  c #176827",
"_  c #18762A",
"`  c #1A6837",
"'  c #1F7936",
"]  c #0C6D25",
"[  c #246729",
"{  c #27792B",
"}  c #286738",
"|  c #37683A",
" . c #267737",
".. c #36773A",
"X. c #6F492F",
"o. c #44713C",
"O. c #4C4835",
"+. c #3B5944",
"@. c #2E5641",
"#. c #276644",
"$. c #376846",
"%. c #287846",
"&. c #377549",
"*. c #2F7551",
"=. c #1D6042",
"-. c #475947",
";. c #4D534A",
":. c #46674A",
">. c #497A48",
",. c #527454",
"<. c #707554",
"1. c #6F6A5A",
"2. c #0B8717",
"3. c #15881A",
"4. c #0B9616",
"5. c #14991A",
"6. c #078C0D",
"7. c #14A81B",
"8. c #0AB915",
"9. c #15BB1A",
"0. c #0AAB12",
"q. c #198827",
"w. c #189823",
"e. c #1A8832",
"r. c #0C8F25",
"t. c #258929",
"y. c #25982A",
"u. c #288737",
"i. c #368539",
"p. c #299739",
"a. c #38983A",
"s. c #328E28",
"d. c #1AA724",
"f. c #1CB621",
"g. c #17AC36",
"h. c #28A92B",
"j. c #38A738",
"k. c #31B130",
"l. c #279F1D",
"z. c #44973A",
"x. c #49B33A",
"c. c #17C81B",
"v. c #17D71B",
"b. c #08D016",
"n. c #25D21D",
"m. c #0FE719",
"M. c #26EA1E",
"N. c #2BF11E",
"B. c #15CE22",
"V. c #25C528",
"C. c #27D925",
"Z. c #36D627",
"A. c #36CC2C",
"S. c #19E822",
"D. c #28E923",
"F. c #38E927",
"G. c #2BF122",
"H. c #39F226",
"J. c #37EC34",
"K. c #46D82C",
"L. c #47CA37",
"P. c #50D335",
"I. c #48E92A",
"U. c #48F228",
"Y. c #58F42B",
"T. c #57E936",
"R. c #58F233",
"E. c #4DEC30",
"W. c #66F62B",
"Q. c #69F336",
"!. c #78F637",
"~. c #6AEE37",
"^. c #44EF1F",
"/. c #2B8747",
"(. c #368A4A",
"). c #379847",
"_. c #399556",
"`. c #308D4D",
"'. c #39A547",
"]. c #35B54E",
"[. c #3E9C60",
"{. c #458549",
"}. c #479747",
"|. c #489855",
" X c #548D51",
".X c #689A5C",
"XX c #689058",
"oX c #45A949",
"OX c #58B644",
"+X c #47A756",
"@X c #57A758",
"#X c #59B859",
"$X c #4FB04D",
"%X c #64AA59",
"&X c #66BA5B",
"*X c #6AA953",
"=X c #54926E",
"-X c #70946B",
";X c #58B866",
":X c #56B070",
">X c #68A865",
",X c #69BB64",
"<X c #74B868",
"1X c #76AC6D",
"2X c #57D943",
"3X c #53C84F",
"4X c #70CB59",
"5X c #67E949",
"6X c #75F346",
"7X c #76EB52",
"8X c #56C365",
"9X c #6BC764",
"0X c #78C867",
"qX c #75CF6B",
"wX c #12E352",
"eX c #8AB376",
"rX c #878E6B",
"tX c #8AF24F",
"yX c #86D36A",
"uX c #87C472",
"iX c #95C97A",
"pX c #8BD773",
"aX c #98D976",
"sX c #8ED06D",
"dX c #A3DD7C",
"fX c #94E66D",
"gX c #A8E67B",
"hX c #B3F17C",
"jX c #89DD5F",
"kX c #64AF84",
"lX c #79CB88",
"zX c #91B893",
"xX c #9AB295",
"cX c #97CA89",
"vX c #A8D985",
"bX c #BACB96",
"nX c #B2D18F",
"mX c #B7E787",
"MX c #B7EB89",
"NX c #B7CDAC",
"BX c #92C1A6",
"VX c #C6DB98",
"CX c #C6DE8D",
"ZX c #C4EC8D",
"AX c #C8EA95",
"SX c #D5ED9A",
"DX c #D8F39B",
"FX c #C3F68B",
"GX c #CDDDAD",
"HX c #D8EAA9",
"JX c #DAF0A8",
"KX c #E7F5A7",
"LX c #F3F8B3",
"PX c #EBF1B3",
"IX c #E0F39F",
"UX c #ECEFCA",
/* pixels */
"# e j & k   o o o o + h ` ^ R E ..>., 1 Z G 1 5 7 Z K L.L.<X<.<.<.X.X.O.( A B 8 | Q W h 5 1 , : v & # k ! / ^ ^ W k p v $ e y % ",
"# a e p k . o o o + + k E >.:X;XcXeX< 1 ) G 9 9 W <.rXX.X.X.X.X.N n n m m O.W 9 5 ( >.U 6 > , 2 1 2 / p & $ $ @ & + % p p p y & ",
"# p R ^ T 2 o o o # # $ d k U U P 2 , 1 I C C 8 <.X.M M m N N n q q q w w = q ( ! ( U U | | ! W / ( % + # + $ + + + + + + & $ s ",
"# < R ! y o # o + # # $ $ $ $ $ , , , , 5 h U 7 o.m m q = w q w = = = = * * * c , , 1 5 5 1 2 4 : $ + # @ + $ + + + + + + o .   ",
"y % a R . . + + + # $ 3 , $ $ $ , 1 f 5 1 | i...| m ~ -.:.:.,.,.$.+.+.^ ^ ! b k > > > 7 7 1 > > 1 , $ $ @ + + & W + # $ 2 o   . ",
"$ $ i E     + + + + < o.h $ , , , 6 ..[ , 1 h ^ ,.BXNXxXBXzX-X:.+.:.,.*.`.).].[.U 1 > C 7 1 7 A 7 Z 8 , , @ + %  .@ + + + o   . ",
"t y u /.E O o + + + $ >.3 $ , , 1 U T 0 1 1 k -XzXUXNX,.;.;.x * * * % % d g U %.:X5 5 C C 7 S 7 9 A 6 7 , , $ & | & # + # +   . ",
"t u g } _ U + + + # $ $ $ $ , 1 h | ) o.eXQ ( ).xXGX~ x x zXx * s % & O < $ p 2  X8 A C T C 7 7 7 5 8 8 , , $ $ < + & # + + o   ",
"$ $ g } T } k & # @ # $ $ $ , 2 5 U T :.*X}.} j.-XxXx ;.x -.s b * * % % s $ $ f (.Z C C >XT C C 7 7 > < p p y $ + # + < < # +   ",
"# # j ^ < k 4 / h $ + $ @ $ , , 1 / 8 2 U W h j.,.BXv * x b x 1.b * & % y % & _ '.C C Z S S Z C A :.>X,X8X#X;X|.$.c + & + # + o ",
"# # ^ % $ 2 [ e.r.e.^ < $ $ , 1 5 5 5 5 2 6 A p.$.-X=Xc 0 k k c 4 4 4 p p 2 I g.].Z Z S G G S  XvXaXqX9X$X_.`.`.(.(.+.s o + # o ",
"# p c + 1 8 A _ _ Q + + $ , , 1 5 C 9 5 6 6 Z g.p.:X=X:.U U W c c x x ^ &.} g.wX].S S G G G eXHXZXaXqX9X3XE R R R R ^ ! v & + o ",
"p ! O y 2 ) _ T 2 + + O x -.:.-.W C C C 7 9 9 &.).8X{.4 * * * * 4 * * 4 Q [ { (.,.S G J G 1XHXvXaXaXaXpXqX#XR g j j j j j ~ + o ",
"l y # $ + h u.t.@ % +.1XpXpXgXFXDXVXXXA C ) H 9 W =X} 2 4 4 0 c U 2 4 0 D H ) ) H i.{ t.{.HXmXaXmXiX>.U k !  XQ y t y i y a v o ",
"j # + + + + & } k (._.+X8XqXqXgXAXDXLXbX} C C C ..kX&.c * * 4 * * * 4 A } A H K F G H K nXAXmXgX,XT , $ + # h _.^ $ $ y y y l % ",
"a # # + + + # c (._.`.%.(.#X9XdXgXZXSXPXVX| D i.[ BX/.kX=XQ  .j.x.z.u.t.A A a.K t.%X X{ HXSXaX#X .d , @ # # U _.} # # $ y t e @.",
"a < # # + + < *.#.E R R E ;X0XaXmXAXAXVXSXcXi.F G BX:Xu.#.P U }.3._ w.5.t.i.1X_ h.h.2.1XvX}.a.>...d , # # i ` _.(.+ + # $ y y ^ ",
"y R % # + + #.=.R l i j #.! y y } <XvXiXnXnX XL G BXkXp.lX} o.0Xh.D S V B o.eX[ K G { vXT > k iX$XT , t g E  X>X+XW # # $ $ ^ k ",
"o y ^ + + ! #.R R j e l j + # # $ T |.@X{.| 1X_ J BXzXe.).] t.j.K D ; B S | xXZ t.S [ *X8 1 ~ c {.' T ^ {.1X>X|._.%.! & # ^ ! & ",
"+ + j U & *.R l R l a =.z $ $ $ $ u } uXk 2 k  XJ cX:X].8Xq.q.y.t.V B Z [ ..xXA { S S }.A > ! 2 2  .;XqX,X/._._.%.l R k / p # O ",
"o + # E #.#.R l R R a $.E i t , , g E >X+.d 2 a.t.qX+X3X8Xd.h.y.t.V B %XmX4X1X,.[ S S ..) 7 ~ W p [ '.+X .E ` E h t a +.p % O + ",
"o + + , #.#.z l j j y *._.&./ U d ^ ^ k v U I p.{.lXp.8X3Xd.3Xn.f.G { ZXvX4Xk.XXo.) S [ T >.XX4 >.a.'.` j i i g j y / k o & # o ",
"o + # + j E z l j a i %._.|.<XnXbX>X$.: k | )  .{.'.w.qX2X7X7X7X2X3. XmX4Xj.3.q.o.| S ) }.{ h / aX9X).' u $ # o o * ~ # o o O   ",
"s + # # k R R j a t y E %./.%.} |./. Xc ~ 0X;XK d.8.C.jX6XD.D.M.Z.L.uXgXuXoXi.) I | ..) u.D p.$X#XoXoX} P t < o O :.u o o o o   ",
"p j $ # R R @.R p j u P ` E P U  ./.#X8X,X;X' c.m.m.J.5XH.D.D.S.c.V.j.3Xq.) i.D Y ) .. X[ Z D ].>.}.}.} U 2 & & ~ ! % # O o + s ",
"  k y $ l R a ! R % , d g 1 1 d ` ).#XcX,Xp.7.S.m.S.G.U.E.E.R.T.L.A.h.h.t._ J 2.4.H ) }.<X>.G p.>.{ u.T I 6 -.:.W $ & % y s c & ",
"j a a $ i R i y a R % + # @ < 6 ` 1XHXcXoXw.V.J.J.5XMXFXMXMXfXtX7X7X3Xa.t.3.4.d.m.v.5.K a.uXXX) S S C 6 / <./ p & + o o o o o   ",
"e R R # e R i i y p R # @ , 1 6 -XUXbXi.y.qXMXFXMXvXpX7X6XT.R.E.U.F.c.9.c.9.7.4.7.D.F.B.w.z.uXXXS Z I %X%X^ 4 + + + $ + + & +   ",
"o j ! ! $ j a y # $ +.p < , 1 ,.UXGX{.oXMXJXbX@Xj.9.D.H.6X6XG.G.U.D.v.9.c.8.0.c.0.c.5X5XD.d.oXvXo.Y }.#XQ < + + o + % & o Q $ + ",
"% % a j k t l # # # p ^ 1 1 6 NXPX0X9XJXJX.XJ d.5.B.D.H.tXE.G.G.I.D.c.9.7.c.c.c.c.9.c.L.jX2Xk.bXbX[ #X} f < $ # # # & + k e.< o ",
"o o $ y R y u j y , < ^ 5 Z ^ cXnX.XJXJX>XK t.G 4.9.F.6X!.G.G.H.E.~.T.P.9.V.Z.9.8.9.c.c.P.jXL.cXPX|.a.T Z A 5 , @ < oX....u.U % ",
"o   o e p R $ $ , t % } 7 S &.>XeXiXPXiXJ F K G 2.c.T.6XfXR.R.6XtXtXR.T.F.c.Z.P.P.K.K.Z.A.~.jXx.PX>Xt.A Z 7 f : , U a.'.p.' 6 d ",
"o   o + y ! / < y u p } C S (.$X[ SXKXi.G G V F F f.C.5XFXtXQ.H.H.U.U.H.H.M.S.v.C.F.v.v.c.E.tXOXVX1X] Z 7 C > : , W p.p.p.` 2 f ",
"o o   o & y ! $.#.R l E f S a.u.T HXMX2.G G G J 2.7.Z.T.Q.Q.Q.6XY.U.Y.Y.Q.G.M.D.D.D.D.M.c.I.tXOXvX%XG S Z 8 Q / P 2 _  .0 h $ 1 ",
"# o o o + + r k / %.} U 1 C u.q.' HXyXh.2.4.5.D.C.A.9.C.U.H.H.R.Y.Y.!.Q.U.N.M.G.M.F.G.T.Z.R.6Xx.yX$XG S A  X@X%Xu.T I T U @ h p ",
"+ + o o + 2 o o y k ^ ^ 2 U ' _ _ VXiXk.7.4.c.Z.T.E.Z.c.S.jXI.Y.W.W.!.W.Y.U.E.N.G.U.U.Y.Q.6XtXk.0Xj.G S 7 ..| ( 0 k d h 2 u d # ",
"$ + + o + d , & + % U | | < Y ] ] nXeX}.J F 3.4.4.k.8.v.m.7XI.U.!.W.W.!.tXQ.Y.N.N.U.Y.R.Y.R.6XOX&X}.J S A 8 5 2 2 < , $ @ @ + $ ",
"+ + + + , d f f 2 $ < U  .: Y ] ) sXj.i.K F 2.7.4.0.b.m.m.M.G.U.W.W.Y.W.Y.W.^.H.U.U.H.H.E.F.~.OXoX}.J S S S 7 6 ( 1.-X.XXX$.k # ",
"+ + $ + , < 5 Y _ Q @ p [ 8 P ) _ 2X5.G J L 6.5.0.b.m.m.S.D.M.U.W.Y.Y.U.M.N.N.H.Q.W.Y.H.E.I.T.OXp.oXJ S S S ! bXPXPXZXaX<X@X(.#.",
"y & , @ % 2 < 8 Y ) : 2 I T Y ) _ P.4.F 6.8.m.v.m.m.m.E.I.E.5XtXhXMXFXMXgX7XT.F.D.U.N.N.M.Z.E.x.w.oX2.G S } HXLXKXAXvXpX,X|./.` ",
"< o #   + 4 & 2 , U T 8 0 ) Y _ e.P.3.4.b.m.G.H.G.U.U.5XhXDXDXSXCXKXDXhXhXhXaX5XF.N.N.N.G.K.K.OXq.j.2.G ) bXIXSXmXvXaXuX@X(.%.U ",
"# o o ! rXnXVXVXnX,.} T h T Y  .] L.2.9.Z.Q.Q.W.U.~.hXKXLXKXKXSXDXDXZXaXfXfXyX3XL.A.F.D.E.9.A.OXq.j.J G -XAXAXvXdXaX0X,X+X/.E $ ",
"o & %.9XpXdXAXSXSXJX-XW , I Y i.r.x.5.V.fXI.I.W.!.DXLXLXKXIXSXZXMXmXaXaX0XOX3Xk.V.h.k.T.c.8.k.P.5.h.J >.nXdXmXdXaXpX0X9X@X%.U < ",
"& #.(.#X9X0XaXZXZXAXVX:.U f Y a.r.L.f.n.I.U.Y.tXDXLXLXKXDXAXMXmXgXaXyX0X4XoXy.h.h.9.d.f.4.b.f.T.5.y.{ eX( ! %X@X0X@X&.} (.`.E # ",
"@.P `.+X#X0X9XyXaXAXbXbX! P I a.r.L.Z.I.Y.W.!.FXLXLXKXSXZXmXmXdXpX0X9X#XoX'.q.L J 6.6.4.7.8.V.E.5.y.z.W + o y W } d & o + k *.2 ",
"l u *.+X8X9XpXyXvX X@ < ,.d I s.r.K.F.Y.W.W.tXLXKXDXZXMXmXgXdXpX0X&X#XoX).) V F 5.F F L 6.7.Z.F.4.y.>.d + + x eXR , + o o o a U ",
"i $ #.+X}.{.{.|.} , o , T / I a.r.Z.I.W.W.W.hXKXSXZXmXgXgXaXyX0X9X#XoX)._ C B H 9.7.F G 3.4.n.D.4.w.$.> , s <.&.P t # o # # g ! ",
"t # R k $ & $ g / # + $ f {.A z.r.Z.Q.!.W.Q.DXSXmXgXgXaXpXpXyXyXqX9X$X/.) - 9 z.J 7.5.3.L 6.V.C.0.y.-.1 h -.& / R t , u $ u E R ",
"e $ a + + # o t {.~ $ $ ! 0X .t.r.K.!.W.W.fXLXAXmXmXgXdXaXyX9X#X#X#X+X/.) > ; ; B H K F F J 9.C.0.h.}.>X0X+.& c E ! u P g P #.R ",
"$ $ j y # + o t k v  X.X<X).' t.r.T.!.U.6XSXiX.XuXaX0XyX&X).) P h W &.).u.9 ; B B B t.V V F 9.C.0.y._  .eXx & s %.;X-X-X|.(.%.z ",
"o $ g U g d h ! u o | |.I T ) t.r.T.~.A.aX.X& o W ).} .. .C 1 + o o + k /.T > ; B B H 3.J V 5.v.4.y.Y T @Xv c ! } +X%./.|./.R j ",
"o o i ^ $.XX-XU t s Q ..@ @ I y.r.P.s.I.%X8 + o o k v W P 1 @ + o o o X 2 u.0 - ; ; B B J 5.H C.4.t.3 0 ,X).|.#.R %.R ` E R l $ ",
"& & , i z g y g E /.;X;X2 + I y.r.x.t.Y.@X6 + o o % nX@XP 1 , + o o o + d ' u.8 - ; B B B 3.H v.4.q.3 :.uX|.+X/.R z $ $ 2 u $ # ",
"  O & & u $ $ g ` _. X+X} + I y.w.k.w.I.*XI + + + rXuX/.I 6 , @ # + + : T  .e.A - - ; B D G H C.4.q.2 <X&X X`.%.R i # # O p k < ",
". o o O & < + t d T |.(.(.O T y.4.A.9.Y.x.Y 5 , v ;.1X .` 7 1 , : < @ 1 E '.).U X - ; V V V k.Z.5.q.W &XoX)./.} ! i $ + .     o ",
"2 ! p & % + o # u f T } P & T y.2.K.F.Y. X7 5 , -.< x } ` I 1 1 8 > > 5 } $X).0 : A D H K S s.Z.5.{ ) $Xu.I E %.U 2 < o   o + O ",
"2 f d o o o   & k & @ $ P  .U k.3.I.U.Q.-X/ ( XX<.$ + ! I u.Q 8 8 I P T +XoXu.A @ - - ; V K H Z.5.{ D ). .+ & < h < &     + & + ",
"$ +   o o o & Q o.+ + @ I p.W x.w.I.Y.2X&XeXiXvX:.+ o c P |.#X<XcXnXiX0X#Xp.e._ 3 @ ; ; A { H Z.3.{ @ A  .% I ) I @ o     , , $ ",
". o   o o u ) oX4Xs , $ ^ ).Q OXd.I.W.x.a.a.}.pX-.+ % x U i.oX'.u.oX#X'.'.p.e.] G A - ; ; D K F.3.{ 3 : T $ k 6 o   4 6 h 2 $ $ ",
". o   < o & u.j.4Xc 1 3 ) T Q OXd.I.U.P._ u.i.,X~ s s c E  .). .) _ u._ _ _ ] S S G ) B 8 F J Z.K { , < T k 3   o &  .T f 5 + & ",
"o o & 6 o 2 T a.k.[ > 6 I 5 Q *Xd.I.Y.R.K ] ' #X>.@X:.| ) Y ' Y Y S H ] _ G S G J L J J B F H P.J { @ @ T T < + U Q 2 < $ +     ",
"o + $ @ + 0 I { q.2 , f 2 6 Q *Xf.I.T.C.f.K D uX&XoX'.u.] Y Y 7 - > B H V V K w.q.3.3.H V F 3.F.K { + + < d d h i + + + o + o o ",
"o O $ f 3 T ) T ] 2 @ 6 $ : ! *Xf.K.V.v.m.f.{ sX&X@XoX)._ Y C 9 : @ > 0 s.p.[ 3 X 9 D ; B V 5.F.H [ + + + u 2 $ + o + k O & o & ",
"$ % ! | ,. X.X X>.4 @ 2 < @ ! OX9.Z.0.b.b.8.$XyX}.i.oXp.' G Z 9 B ; 9 X 3 3 X 3 0 Q ; ; B B 5.D.H [ + + 6 2 + & + & o # o s 2 o "
};
