/* XPM */
static char *_9fbcc5039d14508fd2466c95a1b3d76BQH3W4nLKA7u69xT[] = {
/* columns rows colors chars-per-pixel */
"64 64 154 2 ",
"   c #2E2D3A",
".  c #312F3C",
"X  c #32313E",
"o  c #353442",
"O  c #383645",
"+  c #363946",
"@  c #393946",
"#  c #3C3C4B",
"$  c #3D3F50",
"%  c #403F4D",
"&  c #3F404D",
"*  c #3E4253",
"=  c #41414E",
"-  c #444554",
";  c #484755",
":  c #474956",
">  c #494956",
",  c #434659",
"<  c #454959",
"1  c #4B4D5C",
"2  c #514F5E",
"3  c #4F515E",
"4  c #50505E",
"5  c #464C62",
"6  c #4A4F62",
"7  c #4D5264",
"8  c #4C556C",
"9  c #4E596E",
"0  c #535564",
"q  c #565866",
"w  c #595867",
"e  c #52566A",
"r  c #54596B",
"t  c #5A5C6B",
"y  c #4E5670",
"u  c #4E5971",
"i  c #545C73",
"p  c #595E72",
"a  c #555E79",
"s  c #5D606E",
"d  c #5C6273",
"f  c #576179",
"g  c #5D657B",
"h  c #5E687E",
"j  c #60606D",
"k  c #626574",
"l  c #686776",
"z  c #646877",
"x  c #6A6A77",
"c  c #626779",
"v  c #646A7D",
"b  c #6A6D7C",
"n  c #6C717F",
"m  c #71727F",
"M  c #5C6680",
"N  c #5F6981",
"B  c #636C82",
"V  c #696D82",
"C  c #666F89",
"Z  c #667087",
"A  c #6B7283",
"S  c #677188",
"D  c #6C748B",
"F  c #6F798A",
"G  c #737684",
"H  c #757987",
"J  c #71778A",
"K  c #747A8C",
"L  c #7A7D8C",
"P  c #6F7791",
"I  c #6F7A91",
"U  c #707690",
"Y  c #747D93",
"T  c #797E92",
"R  c #7D808E",
"E  c #778194",
"W  c #7B8395",
"Q  c #778299",
"!  c #7C859A",
"~  c #7E899B",
"^  c #7F89A0",
"/  c #80818E",
"(  c #828593",
")  c #858997",
"_  c #81869B",
"`  c #838B9C",
"'  c #898D9C",
"]  c #85909F",
"[  c #8C919F",
"{  c #848DA2",
"}  c #898FA5",
"|  c #8791A4",
" . c #8B94A5",
".. c #8D95AA",
"X. c #8E99AC",
"o. c #9296A6",
"O. c #9498A6",
"+. c #9296AC",
"@. c #939BAD",
"#. c #9A9DAD",
"$. c #8E99B1",
"%. c #9296B0",
"&. c #959EB2",
"*. c #999FB3",
"=. c #9BA0AF",
"-. c #97A1B4",
";. c #9AA1B4",
":. c #9EA5B9",
">. c #9FA8BA",
",. c #A1A6B4",
"<. c #A3A9B6",
"1. c #A1A6BA",
"2. c #A4AABC",
"3. c #A9ADBD",
"4. c #A7B0BF",
"5. c #ABB0BF",
"6. c #A6ADC0",
"7. c #A9AEC1",
"8. c #A6B0C1",
"9. c #ADB3C5",
"0. c #AFB5C8",
"q. c #B1B6C6",
"w. c #B1B8C7",
"e. c #B1B6C9",
"r. c #B7BDCB",
"t. c #B3B9CC",
"y. c #B5BBCC",
"u. c #B6BBCD",
"i. c #B7BDCC",
"p. c #B9BFCF",
"a. c #B7BED0",
"s. c #B8BFD0",
"d. c #BABFD0",
"f. c #BAC0CF",
"g. c #BBC2D1",
"h. c #BCC0D1",
"j. c #BEC3D2",
"k. c #BEC4D4",
"l. c #C2C5D5",
"z. c #C0C5D6",
"x. c #C1C7D6",
"c. c #C2C8D6",
"v. c #C2C8D7",
"b. c #C3C8D7",
"n. c #C2C7D8",
"m. c #C4C9D8",
"M. c #C5CBD8",
"N. c #C5CBD9",
"B. c #C5CADA",
"V. c #C7CBDA",
"C. c #C8CBDA",
"Z. c #C9CEDC",
"A. c #CCD1DE",
"S. c #CDD3E1",
/* pixels */
"s.e.y.y.i.i.i.i.i.p.i.y.i.i.i.9.G 1.t.M.c.c.p.i.9.@.@ y.g.g.g.k.c.M.M.M.C.y.*.W R ,.#.j.j.g.g.g.k.y.@.t ..9.e.y.i.p.j.1.y.r.r.i.",
"2.k.i.i.i.9.p.i.i.i.i.i.y.i.p.,.q | ;.s.c.x.p.y.9...z g.g.g.g.i.g.i.g.k.M.9.*.Y ' p.g.g.g.g.g.g.g.j.k.x 1.9.e.i.r.c.@.~ ` @.9.k.",
";.2.g.i.y.i.i.w.y.i.i.i.y.i.i.T : | -.*.y.g.i.i.8._ K j.j.j.g.p.s.p.i.g.g.k.g.Y J g.g.g.g.g.g.k.j.g.9.z i.e.t.i.j.5. ... .| ]  .",
"%.-.6.g.i.i.y.y.y.i.y.i.y.9.-.D # | -.;.;.x.y.i.4.K K x.M.M.k.g.p.p.p.p.j.p.j.o.t f.g.g.g.j.j.2.t.g.8.q i.e.y.i.5.o....... .| ..",
"{ &.&.*.;.2.t.8.9.9.e.t.1.;...B @ | ;.&.*.y.y.i.6.b b M.M.M.M.M.x.j.j.p.g.f.p.;.q g.g.g.p.g.1.-.;.t.i.> ;.e.e.8....... . . .....",
";.-.-.;.-.-.;.0.7.6.1.:.;.:.~ B # | ;.;.&.t.p.y.1.w t x.M.M.M.9.7.w.x.g.p.p.s.;.d g.p.p.t.1.&.-.&.6.g.q G y.9.6.......| .. .....",
"-.*.&.&.;.@.-.;.7.:.;.-.;.:.Y f o ~ ;.-.-.2.y.9.! # 7 i.M.c.c.M.M.M.M.M.x.g.s.3.s 9.t.:.@.X.{ ..&.;.y.t 0 8.t.2.| ` ` ` ` _ Y E ",
"` -.&.@.;.-.-.;.-.&.X.| Y h i # . 7 K { ..| | Y p X 1 9.6.@...&.6.p.x.M.x.e.;._ 0 ! V f f i u u Z @.2.k O c F V c v c v g g g q ",
", F Y I D B B f r 8 5 , * # o o # 2 b L W J d 7 @ o O 7 e p g B B h B h g h h 7 # - o o O @ o o * J J 0 . X @ # 5 p f p f r q z ",
"b #.5.3.@.x o o 1 R ( H L O.9.p.j.k.j.j.j.k.k.j.s.t.2.;.A . . q ) '  .@.;.1.2.;.' w . . X o 3 p q t x K ` ..o.o.' x . t g.9.i.i.",
"s.j.c.x.x.c.w.w A k.x.x.k.j.s.g.j.g.g.g.g.j.g.g.g.p.1.y.*.O [ Z.M.x.x.x.x.x.c.M.M.M.;.q o g ..X.X.X... .9.w.p.g.f.w.x L g.s.y.1.",
"y.p.c.c.c.c.c.M.L g.g.g.j.g.g.g.g.g.g.g.g.j.g.g.g.g.j.M.! & 2.j.e.9.9.w.9.9.w.e.y.y.g.y.- { ;.;.~ T ;.&.r.y.t.9.1.i.3.' g.j.1.-.",
"y.y.c.c.c.c.c.Z._ @.s.g.f.j.g.g.g.g.g.g.k.s.9.s.k.g.f.k.! % @.k.2.9.t.i.y.e.e.e...9.9.t.6 X.;.@.;.;.;.p.c.j.g.g.g.j.p.=.g.t.*.-.",
"p.i.c.c.c.c.c.A.T T y.g.g...p.g.g.j.g.k.9.;.;.;.8.i.g.j...- | g.e.9.i.i.i.i.t.t.! &.y.2.r @.*...-.;.9.c.c.c.x.x.c.x.p.3.g.k.;.-.",
"j.s.x.c.c.c.C.A.L J p.g.s.s.j.p.2.*.e.2.;.&.&.-.;.8.t.g.t.> ` i.w.e.i.i.i.i.i.g.{ &.g.@.f &.;.2.;.i.j.c.x.c.c.c.c.c.9.3.g.g.t.;.",
"j.g.x.c.c.c.g.i.W ' j.g.g.p.p.e.9.2.;.-.-.-.-.&.;.;.6.y.p.q ! 2.9.e.i.i.s.i.i.p.6.t.g...g ;.y.y.c.j.j.k.c.c.c.c.c.c.1.#.g.g.j.2.",
"f.g.c.c.x.i.y.2.J ( 9.9.w.9.:.@.X...{ Q Y E ~ | &.;.-.6.s.z W :.9.t.i.i.i.k.p.i.p.r.g.` f :.y.i.r.y.p.i.f.c.x.c.M.x.{ ' g.g.s.9.",
"-.y.M.c.j.:.} 6.b A ! ! D g u i a a i i u 8 8 9 B | @.*.;.H E 2.9.y.y.i.k.2.8.p.i.r.y.W e { e.y.p.1.9.i.y.x.c.c.x.g.z x j.g.f.y.",
"&.;.i.x.j.:.{ 2.k q A J b b G H L R G w ; X o # , v A v c q W 9.9.y.i.g.i.` ` | ;.i.g.Y # h ` &.;.%.2.9.2.9.M.c.c.9.# ; j.g.g.g.",
"@.;.;.g.p.y.9.:.q ` g.g.j.M.M.M.M.M.M.C.a.A q &.8.;.W J K G ' j.9.y.i.x.@. . . .| ] @.Y o o 0 A Q { { } | -.i.c.j.K . ; j.f.y.k.",
"@.;.;.2.c.y.t.:.1 1.g.g.g.g.x.M.M.M.M.0.%.} d @.6.y.j.k.c.r.W g.w.r.y.;...........]  .K o w t s z d e d V K Y W J @ o - ,.K q w ",
"@.;.&.;.j.y.t.;.x g.g.g.g.p.g.p.j.x.c.7.%.{ t | -.2.y.g.g.j.b 9.8.w.;...............| K ' M.x.n.n.M.3.- o R ;.2.9.y.p.f.j.p.q.<.",
"@.-.;.:.i.i.t.@.A s.g.g.g.p.g.g.p.s.g.c.t.{ + h { { :.k.g.j.k 9.9.9.@.......|  . ...` F #.e.9.9.e.e.p.,.4 k.g.g.g.k.c.M.M.M.Z.2.",
"@.;.-.;.t.y.8.L v y.k.k.g.g.g.p.y.{ g.f.j...o 8  .&.-.t.g.j.z  .g.i.-.| { | ....` _ E v =.t.9.9.9.9.e.;.` g.g.g.g.p.g.p.j.x.M.:.",
"I &.;.;.2.1.Y 6 v f.M.M.x.p.p.i.y.! y.i.j.>.# 8 ` &.:.j.j.j.L d _ W A A A V v c g g e O &.y.9.9.9.9.e.1.@.g.g.g.p.p.p.g.y.g.j.x.",
"* 7 f B B h p - z k.M.M.M.c.j.p.g.9.g.g.p.4.= u | ;.t.g.j.j./ . @ - 7 g B B v a 7 - X o ` ;.6.e.9.9.y.o.&.k.M.x.g.p.p.p.i.g.g.g.",
"_ J J | ,.8.2.J t j.M.M.M.2.x.c.j.f.p.g.y.2.= f @.e.j.g.g.j.b 1 R ' o.#.,.2.,.#.O.' n # ! -.;.1.9.9.t.L @.M.M.M.M.j.g.g.p.p.p.p.",
"c.M.x.j.y.2.:.Y 0 i.M.M.M.k.M.M.M.j.p.p.s.8.# g X.e.g.g.g.k.q ,.p.g.g.s.k.j.x.M.M.*.X.t ..-.-.;.9.9.9.z  .M.M.M.M.M.M.c.j.g.p.g.",
"g.g.g.e.2.;.X.D 1 9.p.6.M.M.M.M.M.M.x.g.g.i.O h 6.g.g.g.g.g.t 9.j.j.s.9.f.g.i.g.j.k.2.t t.;.;.:.9.9.8.w E M.M.M.M.M.M.M.M.g.p.p.",
"g.j.i.;.*.-.Z - , 8.c.y.9.y.k.c.M.M.M.k.e.2.O D i.p.g.g.g.7.1 t.M.M.x.8.g.p.g.p.g.p.y.A w.9.9.9.9.8.7.0 A c.M.c.c.M.M.M.M.M.x.s.",
"g.k.2.-.&.&.i # # } P C B B S { @.-.+.{ U A , ! i.g.j.g.s.,.# 0.c.j.M.M.M.c.k.p.p.p.y.n 7.9.9.9.9.9.2.; z -.! D D Y } ;.8.7.1...",
"g.g.g.;.&.X.u # . # 1 q d g g p r 8 e q r 1 0 E 8.2.;.9.j.3.o ;.M.k.j.x.M.M.M.M.x.g.p.x -.e.e.e.1.9.;.@ X # < 1 e p a 9 r e e e ",
"g.g.g.a.;.&.i * L t.j.M.c.w.1 X k ;.w.9.#.x @ X o o @ , z z X v A v v B D Y ` _ W K A , x } ..| ! ! v X X . . . @ ' 9.9.y.p.f.,.",
"g.g.g.g.t.&.g * ,.g.g.j.c.6.d s s.k.x.c.c.x.p.j O 0 0 0 b ) o.,.3.<.#.o.' K 0 X X o o @ # 4 W  .T t o X X . X . k j.w.w.w.e.t.y.",
"g.1.s.f.p.;.B * 3.j.p.p.p.g.z @.y.i.x.c.c.c.c.M.b p.k.j.j.g.g.g.g.j.g.g.g.c.o.O #.8.e.y.p.j.k.j.p.y.3.o.J k b w w i.9.y.i.t.7.9.",
"g.g.g.g.g.7.A # 9.M.j.g.p.p.W 2.p.y.c.x.c.x.9.x. ._ g.g.g.g.g.g.j.9.2.0.g.x.| - 3.j.g.g.g.j.g.g.g.y.+.+.*.k.j.w.q 9.9.i.p.p.%.2.",
"g.j.g.g.p.p.W $ 3.M.M.c.g.p.' 1.f.y.x.c.c.c.c.M.o.K j.g.g.f.i.9.;.-.-.-.2.y.w.1 @.k.g.k.p.j.g.g.g.g.j.j.j.g.g.o.1 ;.e.i.i.f.i.i.",
"j.g.g.j.g.g.{ q ,.M.M.M.c.j. .-.f.y.p.c.c.c.x.A.| b -.-.o.~ Q Y D D D ! &.:.9.d 1.g.y.6.-.-.7.j.j.g.g.g.g.g.e.V : 1.e.y.j.;.3.f.",
"k.k.2.-.2.t.~ v V J Y { | _ k &.g.s.j.c.c.c.Z.M.X., 7 7 r z A L H H A d d q q d g.y.2.-.&.-.*.:.e.s.p.g.p.g.y.b > y.t.p.8.| | ..",
"b 0 > 0 q q q q 1 : 1 < - # O @.i.p.x.c.c.k.t.8._ & 2.p.s.k.M.M.M.M.M.C.M.@.# w g.2.;.-.} Q Q | &.-.>.9.p.g.k.L # ;...8.o... .| ",
"0 x.C.M.k.k.j.k.M.Z.M.M.M.r.s ..e.j.x.c.x.y.y.9.W t g.g.g.j.x.M.M.M.M.C.:.$.d k &...| D 8 8 8 9 i h h B Y ! ! x X ;.2.@... .| ..",
"#.x.y.y.p.i.r.i.i.y.y.i.j.A.` T X.2.M.c.k.i.y.9.L ' g.g.g.g.g.g.g.x.M.x.&.$.q # q K ( b q =   X o o X X o = 0 1 X J :.` E E E J ",
"Z.i.i.1.t.y.i.y.i.i.i.p.i.M._ c X.} 8.j.j.p.i.6.Y ;.g.g.g.p.p.g.g.p.g.x.j.;.e x p.j.c.c.M.M.9.H @ X . . @ ; 1 3 1 1 t d v v d 7 ",
"7.&.i.t.y.i.y.i.i.i.i.i.i.p.@.q .._ &.p.p.w.y.2.L -.s.k.g.s.g.p.p.y.g.g.j.9.z 2.p.i.x.c.c.c.x.M.'   x =.i.t.9.9.9.w.r.f.p.y.9.,.",
"t.t.y.y.y.y.i.i.i.p.y.i.i.i.2.1 X.-.-.;.c.y.t.>.A ;.c.M.c.j.p.g.p.g.g.p.p.i.K ,.j.p.x.c.c.c.c.A...@ Z.S.M.c.x.j.j.j.x.c.x.x.M.S.",
";.w.p.r.y.t.y.y.i.i.y.y.i.i.W > X.;.&.&.s.i.y.1.t ;.M.M.M.M.j.g.g.p.p.g.p.i.L @.f.p.x.c.c.x.2.i...l S.p.i.i.g.y.y.i.i.i.y.i.g.M.",
" .&.:.8.9.t.t.w.y.y.y.w.2.@.B 1 X.&.! ;.i.i.i.;., *.M.M.M.M.M.M.w.g.g.p.p.y.n ` 2.r.c.c.x.y.! 2.W ' x.y.y.r.i.i.y.i.i.y.i.r.y.x.",
";.;.-.-.-.-.1.9.7.2.:.;.:.{ g : X.&.} &.t.y.e.| o | M.M.M.M.M.M.M.c.p.p.s.g.b c ..;.8.j.j.i.y.2.b 5.j.y.9.1.y.i.i.i.i.i.i.i.p.j.",
"{ -.&.&.;.&.-.;.-.&.X.{ Y g , @ E ;.;.-.2.w...f   W M.M.M.M.M.M.M.M.c.p.s.x.J 0 X.-.;.2.x.y.y.1.z M.*.i.e.2.y.i.i.i.i.i.y.i.g.i.",
"# 0 p r e 7 < * , 7 7 , # X . . 7 D Q ! Y Y D - . J M.M.j.k.c.c.C.M.s.p.0.e.A 0 X.;.-.;.p.i.y.;.) j.! y.r.y.y.y.i.i.i.y.i.y.i.i.",
"q ; ; w ( ;.3.9.p.k.k.j.p.w.5.<.@.| L < - * o . . A | Y D D D Q @.6.1.@.^ Y 0 , | ;.-.*.9.y.2.K @.i.e.i.y.i.i.i.i.i.i.p.i.y.i.i.",
"M.2.k.x.j.f.j.j.g.g.j.j.g.j.g.g.g.g.c.0 X X . . X O , 1 7 p B B a i 8 e r r # . , p v A D A p # &.;.j.i.y.r.w.y.p.i.i.p.i.i.i.i.",
"g.+.e.g.g.g.g.g.g.j.g.j.j.g.g.g.g.e.8.q t ( [ [ [ o.O.@.#.@.[ L q o =  .,.,.<.3.3.3.2.3.,.O.= @ -.;.1.f.p.y.i.i.t.t.i.i.y.r.i.p.",
"s.g.g.g.g.g.g.g.g.g.g.k.g.g.x.g.g.t.&.v 3.j.9.9.w.y.e.e.w.w.w.y.s.8.n M.p.y.y.y.y.y.i.y.y.g.' o *.*.;.1.g.g.y.y.y.r.i.y.y.y.t.7.",
";.g.g.g.g.g.g.g.g.g.k.6.;.-.2.i.p.e.2.v  .i.9.e.i.i.t.i.i.+.1.t.g.@.K j.p.i.i.i.i.i.y.2.y.6.s.; .. .| -.&.:.2.t.w.9.y.p.7.:.;.;.",
"&.s.g.g.g.g.p.g.j.y.:.&.;.-.` :.w.p.j.J W 2.9.y.i.i.g.t.t.p.p.i.p.~ ` s.y.r.i.r.i.i.y.y.y.e.9.W W ;.;.&.-.&.;.-.8.3.;.;.` Y ;.&.",
"w.g.g.p.p.p.i.9.2.;.-.&.&.&.&.;.6.e.g...[ e.e.y.i.f.1.` Y  .=.2.8.K d 2.w.i.i.i.t.t.y.t.t.1.&...e &.;.&.&.;.&.&.;.9.7.;.+...;...",
"p.y.i.i.9.:.&.@.@...{ { | X.&.;.;.1.p.;.J i.9.t.2.o...| W .. . .| A 0 { ;.:.2.2.8.2.-.&.&.-.&.v # K -.-.@.;.;.&.;.;.;.-.X.| E h ",
"! ! ! Y S B N M a i i i y i h | @.-.6.-.# o.1.;.| ` ` ~ ~ ! W W A 0 O 7 v D E ! ` { }  .|  .v o X # J { { ! Y K Z h a 8 5 5 , # ",
"D A r e d c v V v d 0 > - - > g Y Y Y K # X @ # , 1 7 7 1 < * # o O # = ; 2 0 w q 4 ; ; - # @ o X X o # $ < 1 1 1 0 t d s 3 @ X ",
"; 3.c.c.j.f.j.j.x.M.M.c.x.f.-.; X @ w b m k , X X = ) ,.,.#.#.<.9.i.p.g.g.j.j.j.j.j.j.g.p.p.y.w.w. .O + O.c.M.M.M.c.M.M.Z.M.f.) ",
"G A.c.j.j.g.g.g.g.j.j.j.x.M.A.R # 2.k.c.c.c.x.9.k X o.k.g.g.g.s.g.3.g.j.g.g.g.g.g.j.j.j.j.j.g.g.M.| - A x.g.t.e.t.t.t.y.y.p.j.x.",
"2.c.y.y.p.p.y.i.i.i.i.i.p.k.Z. .H y.y.x.c.c.M.x.M.( 0 @.g.g.7.e.j.1.s.g.j.g.g.k.t.2.1.2.e.i.g.g.x.{ 1 x i.y.9.9.t.y.e.w.9.9.w.9.",
"A.s.i.y.y.i.i.y.i.i.i.i.y.i.Z.| o.g.t.k.c.c.c.x.c.y.> @.j.g.7.7.g.g.s.j.g.t.6.;.&.;.&.-.;.1.9.y.g.w.s d 9.s.9.e.i.p.i.y.e.9.e.9."
};
