/* XPM */
static char *_bd58cddd36f48c2d37963e0fa4db8a7QetOqtpWWLq0UMBQ[] = {
/* columns rows colors chars-per-pixel */
"64 64 210 2 ",
"   c #020202",
".  c #080707",
"X  c #040A05",
"o  c #090906",
"O  c #060608",
"+  c #090708",
"@  c #0B0B0B",
"#  c #070908",
"$  c #110E0F",
"%  c #061306",
"&  c #061A06",
"*  c #091C06",
"=  c #061308",
"-  c #0C120C",
";  c #071A09",
":  c #091A0A",
">  c #10100F",
",  c #0D0E10",
"<  c #110F10",
"1  c #131313",
"2  c #191716",
"3  c #17171A",
"4  c #191718",
"5  c #1B1B1B",
"6  c #171A15",
"7  c #221E1F",
"8  c #062407",
"9  c #092406",
"0  c #0A2A07",
"q  c #072308",
"w  c #092409",
"e  c #072A0B",
"r  c #092C0A",
"t  c #072D07",
"y  c #07310B",
"u  c #0A340C",
"i  c #0B3D0C",
"p  c #093909",
"a  c #162C15",
"s  c #192C15",
"d  c #19241A",
"f  c #1B2D1B",
"g  c #112312",
"h  c #0F3513",
"j  c #0C3C11",
"k  c #073D10",
"l  c #1A3217",
"z  c #1C321B",
"x  c #12381A",
"c  c #163717",
"v  c #21201F",
"b  c #21351C",
"n  c #1F1F21",
"m  c #211F20",
"M  c #1F2120",
"N  c #232323",
"B  c #282626",
"V  c #272729",
"C  c #2B2B2B",
"Z  c #262D25",
"A  c #302E2F",
"S  c #233821",
"D  c #2F2F30",
"F  c #302F30",
"G  c #343333",
"H  c #393638",
"J  c #3B3A3B",
"K  c #363935",
"L  c #0B430C",
"P  c #0C4B0D",
"I  c #0A4507",
"U  c #104F0F",
"Y  c #0D530C",
"T  c #0D5B0C",
"R  c #0D5907",
"E  c #10520D",
"W  c #105E0F",
"Q  c #0B4D12",
"!  c #0E4315",
"~  c #124213",
"^  c #134B13",
"/  c #0D5311",
"(  c #0B5B14",
")  c #115D12",
"_  c #145214",
"`  c #0E630D",
"'  c #0E6B0D",
"]  c #10650D",
"[  c #116C0D",
"{  c #0E750E",
"}  c #0E7A0D",
"|  c #11740D",
" . c #117B0D",
".. c #0D6312",
"X. c #0E6D13",
"o. c #116211",
"O. c #126D14",
"+. c #0D7414",
"@. c #0E7C11",
"#. c #0B7C1A",
"$. c #127512",
"%. c #127A12",
"&. c #17771A",
"*. c #2B4827",
"=. c #2C472A",
"-. c #344832",
";. c #345434",
":. c #3D5A3B",
">. c #3B5638",
",. c #33552E",
"<. c #405A3E",
"1. c #40623F",
"2. c #444343",
"3. c #484546",
"4. c #494748",
"5. c #4B4B4B",
"6. c #484847",
"7. c #504E4F",
"8. c #4E4D51",
"9. c #524F50",
"0. c #535253",
"q. c #5D5C5D",
"w. c #595857",
"e. c #456442",
"r. c #4B6A4C",
"t. c #516D4E",
"y. c #626262",
"u. c #6C6C6C",
"i. c #737373",
"p. c #7D7D7D",
"a. c #0F830E",
"s. c #0E8C0D",
"d. c #11850C",
"f. c #128B0D",
"g. c #0F9C0F",
"h. c #13940D",
"j. c #129B0D",
"k. c #0D8415",
"l. c #0D8B13",
"z. c #0D8618",
"x. c #0E8B1A",
"c. c #128413",
"v. c #138C12",
"b. c #0D9414",
"n. c #0C9B13",
"m. c #0B9418",
"M. c #129312",
"N. c #129C13",
"B. c #129319",
"V. c #199D12",
"C. c #0BA50F",
"Z. c #0EAD0E",
"A. c #12A30D",
"S. c #13AA0D",
"D. c #18A60E",
"F. c #0EB40E",
"G. c #0EBB0C",
"H. c #12B40D",
"J. c #12BC0D",
"K. c #0CA412",
"L. c #0DAB11",
"P. c #12A312",
"I. c #11AB12",
"U. c #19A111",
"Y. c #0EB311",
"T. c #12B410",
"R. c #11BB10",
"E. c #1BB518",
"W. c #24B61F",
"Q. c #24BD1E",
"!. c #29BF1E",
"~. c #219228",
"^. c #20A822",
"/. c #26B622",
"(. c #38AF37",
"). c #41AB3C",
"_. c #0FC30B",
"`. c #0EC909",
"'. c #0FCE06",
"]. c #11CC07",
"[. c #12C40B",
"{. c #12CB09",
"}. c #18CA0E",
"|. c #15C409",
" X c #0FD106",
".X c #12D406",
"XX c #13DB05",
"oX c #13D309",
"OX c #15DC08",
"+X c #18D809",
"@X c #10C010",
"#X c #25C31C",
"$X c #29C31E",
"%X c #29CC1D",
"&X c #20DA15",
"*X c #14E502",
"=X c #14E205",
"-X c #14E303",
";X c #14E801",
":X c #2BC421",
">X c #2CCA21",
",X c #27C021",
"<X c #2CD422",
"1X c #32D329",
"2X c #76B572",
"3X c #848383",
"4X c #8F8F90",
"5X c #8AA087",
"6X c white",
"7X c white",
/* pixels */
"        O @                   O 5                   @ M                   1 N                   1 1                 @ @ @     6X",
"        @ 5                   1 N 1               O 1 N 5               @ @ 1 N             O @   O 1             @     O @   6X",
"      @ O O 5 @             1     5 5           O 1     1 1 Z -.Z @   @ @     @ 5 @       O @       O @ O     O @           @ 6X",
"    @ O       5 1         @         @ C @     O 1       d ).<X&X<X).d O           1 @   O 1             @ O   @               6X",
"  . O           1 5 O   @ O           O C 1 O 1       s !.|.' E J.J./.a             1 1 1                 @ 1                 6X",
"@ O               O 5 1 O                 5 5       a $X|.t O ] p r J.W.f             1 @                 O 1                 6X",
"@                     5                   @ 1     s :XoXi X  .oX{ X 9 |.:Xa         O 5 @               O @ @               . 6X",
"1                   @ B O               @ 1 5 O l #XJ.E f.d.1X2XR. .X T OX%Xl     @ 1   1 @           . @     @ O         @ O 6X",
"1 1               1 O @ B @           @ @   O z $X|.w X J..X(.5.U.+XH.| p }.$Xs @ @       @ @       @ @         @ @     @ O   6X",
"  1 1           1 O       N 1       @ @   O f >X+X9 X f.-X=XOX|.+XXXOXs.X 8 J.>XS           @ 1   O @             O @ @ O     6X",
"    O 5 1     1 O           1 N @ @ @     z %X|.h.u d.OXXX-X-X-X-X-X=X=Xd.X r {.#Xl           O 1 1                   1       6X",
"  O   O 1 N 1 @               O 5 1     f $X|.w r }.XXXX-X*X=X*X=X*X*X*X-XA.h.[ J.#Xz   O       @ 1         @ O O   @ 1       6X",
"O O + @ @ 1 5 1 1 .           O @ 1   z %XJ.w % h.=X-X=X*X;X*X=XXXXX=X=XXXOXf.X q J.%XS @ @ O @ 5 B O   O O   O O 1 @ 1 1     6X",
"@ @ @ @ 1 4 C m B 5 @ O       @ 1 1 z #XJ.h.% h.-X*X*X*X*X;X;X;XOX.XXXOXXX.X.Xd.X 9 H.Q.=.N 1 1 @ @ 5 @ O @ O O 1 @     O 1 @ 6X",
"1 1 @ 1 1 5 C H G B 5 @ 1 @ @ 1 . b %XJ.* | H.-X*X*X*X*X;X*X*X-X=X=X+X.XXXXX.XoXv.P N.H.,X=.N @ @     5 5 O   1 @           @ 6X",
"5 5 5 1 1 5 B C G J J C 5 5 5 1 *.%XJ.9 % h.=X=X*X;X;X-X-X*X-X*X=XOXH.] {.XXXXoX.XH.& w H.>Xt.C 1 O   @ 1 5 1 @               6X",
"5 N N 5 1 7 C J 2.J 2.2.N M G >.%X+X` X h.-XOX*X-X=X=X.X{.-XOX-XXX+X* u ].+XXX].oXoXf.X 9 H.>Xt.3 5 1 5 @ 1 6                 6X",
"N N B 5 5 5 C G G G A C D C >.<X|.0 j.A.-X=X=X=XOXXXXX|.}.|.OX=XOXd.  | OX X X|..XoX.Xh.* ] [.:X-.C C C 1 5 5                 6X",
"5 5 5 5 N B B C N C B B J e.>XH.9 % S.-X=X=X=X{.oXOXXXV.f. .` T Y X i c..XoX[.[.{..X.X.X|.Y r S.$X:.H C 1 N C 1             @ 6X",
"5 1 1 5 N B B B N N N 5 e.:X}.r X h.+XXXOXXXXXXXXXA.i % O             & i h.J.H.[.]..XoXoXf.# q S.Q.e.5 C N 1 5 5 O   O @ @ @ 6X",
"4 5 @ @ 1 5 5 5 N B G <.:XH.] T h..XXXXXXXXX+XS. .h.  X * L R ` R L * X   v.Y j.[..XoX.X].].f.X 9 R.$X>.2.J G J N 5 1 1 1 1 @ 6X",
"@ @ 1 5 @ 1 1 5 5 V e.%XS.* ; J..XXX.X].+XXX} X X A.| A.].oXXX.X.XXX{.A.{ f.  X ' [.].].].`.[.h.$.P S.>Xr.G J 2.J 4 1 5 5 @ O 6X",
"@ O O @ 5 5 2 7 N >.>XH.* X j..XOXXXXX].].]       r {.]..X.X.XXX+X.X'.`.[.*       R H.{.oX{.[._.v.X ; D./.>.C 2.8.B 5 5 3 1 @ 6X",
"@ @ O X @ 5 1 5 >.%XS.S.w h..X.X.X.X].{. .          d.+X.X.XXX.X].`.[.{.'           | J.{.[._.{._.f.% ; S./.;.2.0.2.C B C n 1 6X",
"@ @ @ @ @ 2 > ,.%XS.* P H.].XXXX.XoXf. .X           w |.oX.X.X].{.].].H.&           X h._.{.`.J.[.[.M.[ %.N./.r.5.5.C 5 B C N 6X",
"  O O . @ , *.#XH.: X M.].].oX.X].|.%                 ' ]..X].{.{.`.`.Y               8 J.[.].H.v.[.{.S.% & N.^.>.G H m 5 5 5 6X",
"  O @ 1 1 *.#XH.] % f._.[.].].{.j.w                   % H.{.`.G.Y.[.A.X                  .G.T.T.[.`.[.[.d.% ; M./.:.C 5 1 1 5 6X",
"O @ v C e.Q.j.* f.s.[.`.[.{.H.A.w                       I [._.H.F.J.u                   ; c.T.[.G.[.{.[.[.f.r %.A.W.;.n 5 @ @ 6X",
"3 C G 1.$XA.% = j.[.[._.[.].u X                         ; H.G.J._.S.*                     r M.v.[.].{.G.[.J.H.w = n.W.,.1 @ @ 6X",
"V C S #X[.w & j.].{.[.J.T.J.P.~                       & A.J.s.' f.G.A.;                   r &.&.P.|.[.[.G.J.J.f.= % M.E.g @ @ 6X",
"B V &.H.P [ j.{.{.[.[.{.{.[.$.                        ' R.Y       P F.'                   : ^ _ ) c.f. .A.[.G.J.v.X r P...@ @ 6X",
"C 5  .s.  h.{.{.[.J.J.[.[.J.:                       X g.j.          j.A.%                 X : y O.L.@XG.`.{.`._.G.N.{ Z.' @   6X",
"N 7 ` j.  ] [.[.[.[.[.].{.f.' *   u } {  .' ' ` ` } { F.a.          a.H.a.a.a.] ) s.s.s.c.i ~ U X.c.Z.H.G.J.G.J.J.T O l.R O   6X",
"B C g S.r X h.[.{.[.{.[.] j.J.P O ; p  .[.S.A.I.P.G.J.H.I.X       % I.J.J.J.F.H.@.G.G.` % * h / $.K.K.L.H.G.H.Y.`   r P.* O   6X",
"3 C 5 Y n.c.T | G.G.F.o.h.G.J.b.N.r   I [.S.S.G.J.F.F.Z.L.} ; X ; @.F.G.G.J.G.J.{ F.G.L   T N.k.X.L.Z.Z.L.L.Z.M.i q N.Y O O O 6X",
"1 1 < - Y C.r X ' I.v.H.J.G.G.J._.|   ; J.N.S.J.J.F.J.F.L.Z.L.g.P.F.F.F.Y.F.F.G.@.F.Y.;   X.n.n.K.L.H.Z.H.L.( & c.n.Y @ O O O 6X",
"1 $ @ $ @ Y A.r O Q I.J.G.G.G.H.J.v.%   A.A.H._.J.G.G.H.F.P $.s.| I K.Z.F.F.Z.G.{ F.l.  X x.n.B.N.L.G.Y.F.`   e K.P X O @ O O 6X",
"5 1 @ @ @ O Y o.R %.a.F._.[.J.J.{.c.i   I H.H.G.G.G.F.Z...          I L.F.F.F.F.P.J.L   = j B.Z.N.P.S.J.b.% 8 b.Y   O . X @ O 6X",
"1 5 5 1 1 1 @ T R.p X ' [._.H.[.J.w h X X j.G.G.J.G.Y.n.%           X s.L.F.F.F.F.l.X   T } %.T.G.H.M.Y L ..P.P O O         @ 6X",
"1 1 5 4 1 6 > - Y I.r X ' J.Z.J.J.v.c.r   r I.G.F.L.Z.L               r Z.Y.F.L.P.r   : c.Y.M.$.L.c.T O 8 I.P O               6X",
"@ 1 4 5 , 1 1 . O Y P.u Y v.F.F.F.J.K.A.%   P H.G.Y.l.                  X.Z.Y.L.L   % O.v.L.Z.N.N.k.O r N.P O       O O O     6X",
"@ 1 1 1 1 1 1 @ O X Y F.T X ` G.F.G.G.[.) X   i I.F.u                   & P.P.p      .P.P.Z.I.L.P $.i c.L O   O @ @ @ @ @ @ @ 6X",
"1 @ 1 @ @ 1 @ @ . O O Y S.0   ` L.G.G.G.%.| X   P @.                      Q [   X / L.Z.S.H.I./ O L B.~     O @ O @ @ @ @ @ 1 6X",
"5 O @ @ @ @ @ @ @ @ @ . T H.u q M.Z.F.L.N.L.} w c.q                       X k.u { F.F.L.L.J./ X u N.Y         @ @       O @ O 6X",
"@ 5 O @ @ . O O < 5 @ . @ P c.f.r T F.Z.Z.Z.L.K.b.:                       O +.M.K.L.F.F.F.X.' u P.Y             O @ O   @     6X",
"O O 5 @ @   O @ 5 1 1 - 1 @ P P.r   T K.C.K.L.n.K.k.L & X           X & Y X.n.n.n.K.L.Y.T   c.N.P                   @ 1       6X",
"      1 5 @ @ 1 @ @ @ @ @ @ @ P A.w O ' L.C.C.L.K.b.n...) k.+...X L O.+.n.k.l.N.c.K.K.Y   w n.P O                     1       6X",
"        O 5 5 O O O O O O O @ @ L P.%...T L.K.K.K.K.C.k...n.n.n.k.n.k.j n.k.P K.K.K.b.; u o.L                       1 1       6X",
"          @ 1                 O . i W r   Y C.K.n.K.K.L.' L.K.K.K.K.K.P b.B.( n.n.Q r +.b.j     O 1 @             1 O @ 5 O   6X",
"        @ @ N O               @ 1 @ X @.u   / K.K.K.K.K.$.K.C.K.n.K.K...z.l.n.n.P O y b.L         O 5 5       O 1       O 1 , 6X",
"      @   @ @ 5 @         O 1 1 @ @ @ u N.i { %.K.K.C.K.n.C.L.K.C.K.n...k.n.m.O.  w m.i               @ 5 O   1           O @ 6X",
"  O @     O O   1 1 O   O 1 @ @ @ @ @   i n.i O Y K.K.K.K.K.C.K.K.K.K.K.N.n.P ..L k.u                   O 1 1               O 6X",
"O @               O 5 @ 1 O O   O O     @ L n.u   Q K.K.K.K.K.K.K.K.K.K.K.P   L b.p                       @ 1               @ 6X",
"@                   O 5                 @ 5 p B.r r c.K.K.K.L.L.K.K.K.K./ O y b.r     @ O                 1 1           O @ 1 6X",
"@                   1 1                 O B B ~ n.{ % P n.n.(.5X~.n.b./ ( y x.u     @ @ 5 O           O @ O @ 1         O , 3 6X",
"1 O               @ @ 5 @             O 1 J J G ~ b.r   L n.&.6 +.m.i   ..x.j # O @     @ B @       O 1       O 1 O     O 1 1 6X",
"@ 1 @           1 O     5 @         O 1 @ F q.0.B h z.r X ..n.b.x.i   y z.u 5 5 @           N 1   O @             @ @   @ 1 1 6X",
"    @ 1 O   O @           @ 1 O   @ @   @ N 5.q.6.C r #.X.L L +...e e z.h C B B @           O 1 5 >                 @ @ O 1 4 6X",
"      O 1 1 @               O 1 1 @     @ C 2.G 2.w.C y z.u   X ; X.#.x J H H C @     @ 1 @ . @ 1 @                 O 1 @ , 1 6X",
"          1                     4       O G J G 5.5.0.C h #.( k ( #.x u.q.4.J 2.@       O 1 $   1 1             O O @ 1 @ @ @ 6X",
"        @ 1                   @ N @     O J 2.2.2.5.5.2.q.f j Q ! K 3X3Xq.2.9.4.@   O @     > @ O 1 1         O O @ @ @ 1 @ @ 6X",
"      . O @ 1               @ @   B 1   1 J 5.2.7.5.y.u.q.y.2.y.i.3X4Xp.4.3.2.G B   1       1 O     @ 1         @ @ 1 $ @ @ @ 6X",
"    . @     @ 1 O         @ @     O C C 5 2.5.5.2.5.i.u.p.4.2.3Xu.3Xi.0.G N N m @ 5 @ O O 1 O   O     @ 1 O   @ O @ @ @ @ O @ 6X",
"  @ O O   @ 5 $ 4 1 O   @ @   O 1 5 B C 2.0.5.2.0.0.y.i.i.2.4.u.i.i.q.3.5 $ < 5   @ N @ 1 O             O 1 @ @ @ O . @ + . @ 6X"
};
