/* XPM */
static char *_206953ac729482ce07711fa45ede36731Yok90O2EwYYlNh[] = {
/* columns rows colors chars-per-pixel */
"64 64 234 2 ",
"   c #060606",
".  c #080707",
"X  c #060807",
"o  c #090907",
"O  c #060609",
"+  c #08070A",
"@  c #07090A",
"#  c #0B0B0C",
"$  c #100D0E",
"%  c #0E110D",
"&  c #0E1B0C",
"*  c #07140C",
"=  c #11110E",
"-  c #131E0E",
";  c #0E0E11",
":  c #110F12",
">  c #0F1112",
",  c #0E1A11",
"<  c #131313",
"1  c #141A13",
"2  c #1A1B16",
"3  c #161619",
"4  c #191719",
"5  c #161A19",
"6  c #1B1B1B",
"7  c #181715",
"8  c #211F1F",
"9  c #16260D",
"0  c #142313",
"q  c #1B2315",
"w  c #1C2C15",
"e  c #1D231B",
"r  c #1A3913",
"t  c #152A10",
"y  c #22231D",
"u  c #242A1B",
"i  c #25371A",
"p  c #313C1E",
"a  c #1D1E21",
"s  c #201F21",
"d  c #1F2121",
"f  c #232322",
"g  c #262A23",
"h  c #2A2B24",
"j  c #2A2B29",
"k  c #262729",
"l  c #2B3223",
"z  c #2D312A",
"x  c #273924",
"c  c #32342D",
"v  c #343A28",
"b  c #343434",
"n  c #393C33",
"m  c #3D3E3D",
"M  c #353B32",
"N  c #2E3430",
"B  c #1C5717",
"V  c #154D0E",
"C  c #274818",
"Z  c #374B1D",
"A  c #35571B",
"S  c #295517",
"D  c #1E7918",
"F  c #336D1B",
"G  c #3B761D",
"H  c #286915",
"J  c #394827",
"K  c #385722",
"L  c #3D413A",
"P  c #394530",
"I  c #2E5024",
"U  c #316924",
"Y  c #467E1B",
"T  c #4D6A1F",
"R  c #434A2A",
"E  c #475928",
"W  c #434B3C",
"Q  c #414737",
"!  c #465236",
"~  c #535938",
"^  c #525B2D",
"/  c #4C6629",
"(  c #546928",
")  c #457929",
"_  c #57742C",
"`  c #566435",
"'  c #4D7838",
"]  c #63763C",
"[  c #616D35",
"{  c #3F3F41",
"}  c #434444",
"|  c #494B48",
" . c #4B5743",
".. c #565949",
"X. c #545454",
"o. c #5B5B5B",
"O. c #5D6949",
"+. c #5A6E49",
"@. c #667347",
"#. c #6C7254",
"$. c #6D754F",
"%. c #398519",
"&. c #2C951B",
"*. c #1DB019",
"=. c #38BE14",
"-. c #2EAE18",
";. c #349323",
":. c #3DAA24",
">. c #4A831D",
",. c #42981C",
"<. c #4DA916",
"1. c #51B315",
"2. c #56AF1E",
"3. c #588627",
"4. c #589325",
"5. c #538337",
"6. c #489524",
"7. c #658A2B",
"8. c #68912A",
"9. c #769D2C",
"0. c #658837",
"q. c #788A39",
"w. c #789639",
"e. c #62903D",
"r. c #56B728",
"t. c #66AB23",
"y. c #64B62A",
"u. c #7DBD27",
"i. c #7DBD3C",
"p. c #79A73E",
"a. c #3BD219",
"s. c #1BE20A",
"d. c #29E113",
"f. c #5CD916",
"g. c #57C913",
"h. c #4AE416",
"j. c #65FC04",
"k. c #65F50B",
"l. c #68FB05",
"z. c #63E312",
"x. c #6BF813",
"c. c #76FB1D",
"v. c #6AEE17",
"b. c #55CA27",
"n. c #5BDB2B",
"m. c #62C826",
"M. c #79C426",
"N. c #67C435",
"B. c #79CE2D",
"V. c #57E024",
"C. c #78F926",
"Z. c #6F8745",
"A. c #768749",
"S. c #7A9747",
"D. c #758A56",
"F. c #6FBF41",
"G. c #7FD041",
"H. c #839E39",
"J. c #87A638",
"K. c #89B734",
"L. c #81E519",
"P. c #83D42E",
"I. c #87C737",
"U. c #9AC736",
"Y. c #8CD83E",
"T. c #84C22C",
"R. c #A3C83C",
"E. c #A9D73B",
"W. c #A2DF2F",
"Q. c #9BEA2D",
"!. c #8BF037",
"~. c #A5F523",
"^. c #B9F828",
"/. c #BDF430",
"(. c #A7F818",
"). c #CAFA39",
"_. c #D1FD3C",
"`. c #C0FB2B",
"'. c #86984A",
"]. c #848D57",
"[. c #8B9756",
"{. c #8A9550",
"}. c #93AB4C",
"|. c #84B940",
" X c #96A657",
".X c #97B353",
"XX c #94B14A",
"oX c #A2B857",
"OX c #A4BD49",
"+X c #869868",
"@X c #92977C",
"#X c #8B8F71",
"$X c #96A966",
"%X c #9BB37E",
"&X c #8FAA73",
"*X c #A1BA6C",
"=X c #9CC644",
"-X c #8EDD45",
";X c #AAD346",
":X c #B4D849",
">X c #ACC557",
",X c #B6CE5B",
"<X c #B6D755",
"1X c #AACC49",
"2X c #93E044",
"3X c #BCE944",
"4X c #BEE656",
"5X c #B5CB66",
"6X c #B9D666",
"7X c #BDD675",
"8X c #C4DE5F",
"9X c #C7E84C",
"0X c #CFFA43",
"qX c #D3FD42",
"wX c #DBFB4C",
"eX c #C3E259",
"rX c #D8F758",
"tX c #C1D96A",
"yX c #C4DC7C",
"uX c #D6F370",
"iX c #A9B78E",
"pX c #BBCD8E",
"aX c #B7CE8D",
"sX c #C3D788",
"dX c #DCF587",
"fX c #CAE699",
"gX c #D7EA9C",
"hX c #E2F991",
"jX c #C4CDA1",
"kX c #D3DFAA",
"lX c #D4E7A4",
"zX c #DAF2A8",
"xX c #DFEAB5",
"cX c #E4F8B1",
/* pixels */
"# #       # # # ; # # # # # G x.j.k.%.% # ; < d 6 < < > < 7 ; ; 1 q < ; # 1 ; @ @ @ O # # # ) c.j.g.& ; ; > i !.l.1.# ; # # % @ ",
"  #                       O & 1.f.<.& ; # @ # 3 ;   # @ @ # @ # 1 % # @ # O O @ O # O O @ @ U c.j.z.9 # # > I !.l.g.X # # @ X @ ",
"    #                 O O O O % t % O # # # # < ; X # @ @ # # , 0 # # @ # @ @ @ # O @ @ # # K C.j.k.S ; > ; ' C.l.f.% % # # # # ",
"      # > +                   O + + # # # # # 7 #   O O @ # # # > # @ O O O O # @ O O O # # C C.j.l.%.; # ; 5.c.j.z.% # # # # ; ",
"  # #   O                 # @ # # .   # # # # 4 #   O # O @ # @ @ # @   @ @   O O O # # # ; w v.j.l.1.# ; > ) x.j.z.& # @ @ # # ",
"    # .     #     #         . # # # O # # # # 4 >   O @ # % # @ # @ X X @   O O O O # # # # @ m.j.j.1.# < # C x.l.f.% # # # # > ",
"# # # # # < < 7 # 4 < < # # # < < < < < < < 7 4 6 3 < 7 > < < # > < < 4 7 7 7 < > < < < 3 < : G k.k.,.; ; ; ; ,.k.6.$ # @ # # # ",
"# # # # # # # d 7 # # < < < < = # # # # # # # # < # # < < < < # # # %   # # # 4 7 ; < ; ; % = % G 2.r : ; # # % C w ; ; # # # # ",
"  #   #     # 6 < # # # # # # # # # # # = # # # # # < # ; % # b b # #         3 ; ; # # > < < # $ > ; ; # # ; # # # # # # # # # ",
"        # # # 6 < # # # # # # # # # < < # # # # # # < # # # 7 X.X.< X       # 7 # # ; # # < > = < = : ; # # # # # O + # # # # # ",
"# #   # # # # 6 < # # # # # # # < < # # # # # # # # # $ # # 7 X.X.<   #     # < < < ; # # # : < < % # # # # + #   #   # #   # # ",
"        # # # 6 # # # # # # # # # < # # # # # # # # # # 7 < 7 | | < # <       7 < < # # # # < # ; # # # #         #   # #   # # ",
"# # # # # # # 4 # # # < # # # # # # # # # # # # # # < b } < 7 } } < 7 } b # # 7 # < < # # # # # > # # # # # # # # # # # # # #   ",
"7 < 7 < < # # # # # < < # < < < 7 < < < < 7 4 f 7 7 7 } } 4 4 { } 4 4 } } 7 # # < 7 < < # = < < 4 7 7 7 7 > < 4 7 < 7 7 4 6 6 7 ",
"# # # # # #   #   # # # # # # # # # # # # < < k 4   < b b # % b b < % b b ; # # # # # # # # # # # # # # # #   7 4 # < 7 < < ; < ",
"    # < # #     # # # # # # # # # # # # < < < f < # > j j # < c c # # k j # # # # # # # # # # # # # # # # # # 7 7 # < < # < < < ",
"# # # # # # # # # # # # # # # < # < # < < 7 7 y 7 O 5 ..@XiXjXkXkXjXiX@X..7 O # # # O # # # # # # # # # # < # 7 7 # # 7 # < # # ",
"  # # #   # # # #   # # # < # < # < < # < # < f j #XxXcXzXfXaX%XiXaXfXzXcXxX#Xf # # . # . # < # # # # @ # # 7 < 7 # # # < # # # ",
"# #       #         # # # # # # # # # # < = : ..kXfX%XD.O. .W W L n P ! +.+XpXlX .# # # O # # # # #   # # # # 7 # # < # # # # # ",
"< 6 7 7 4 4 4 6 7 4 4 7 7 4 7 < 4 4 4 4 3 3 O.lX&X+... .| W Q L n n M c c z n +XlX#.6 4 5 4 7 4 7 4 7 7 f 6 6 6 4 3 7 7 7 7 4 7 ",
"# # # # # #   f 4 # # # #   #   # X +   X ..zX&X .| Q n M z j g f y y e y 6 5 l +XzXO.# # # # # < < < < < > # > < < 7 # < < # # ",
"# # # # # # # 6 6 # # # # #     # # # # n gX*XW L n c z h k f 6 6 4 2 4 4 < 7 k f $XgXQ # # < < < 7 7 # < 7 < < < < < < 7 < < < ",
"# # < # # # # 4 7 # # # # # # # #   # 6 pXsX! n c j g y y 6 4 < 4 < < # % # < 6 4 4 sXsX2 < < < < 7 7 7 < 7 7 7 < < < < < < < > ",
"# # # # # X # 7 7 # #   # # # # # # # #.hXA.c z g f e 4 < < < = # # # # # # # 4 7 @ ~ hX$.# < < 7 < 7 4 7 7 4 7 7 < < < 7 7 7 < ",
"# #     # # # < < # # # # # # # #   # sX7XM j y 6 4 < < # # # # . . # #   # # 4 7 O 1 sXyX# # < # < < < 7 < < 7 < < < < < 7 7 < ",
"< # # < < < < 7 7 = < < < < = # < < 6 dX$Xz g 6 4 4 5 7 < < < # > > # < # < < 7 6 7 < [.dX5 < > < < < # < < < < < < # 4 4 < < < ",
"< < < < < < < < < < < < > < < < < < y hXS.y y h 4 4 4 4 4 4 5 6 6 6 4 4 4 7 7 7 7 7 < A.dXe % # ; # # < ; = 7 k 7 # # < # # < < ",
"# # # # # # # # # # # < # + # # # # 2 dXA.7 4 f < < < < 7 7 4 4 3 7 7 4 7 7 7 7 < $ # $.uX1 # # o # # = # ; ; f < # # # # # # # ",
"< # # < # # # # # # # 6 @.$X$X].h # = uXA.< < 6 < < < < 4 4 4 7 < 7 4 7 < 7 7 7 < < = A.uX< # y ].$X$X@.2 # # d # # # #   # # # ",
"# # < # # # # # #   X O.6XA.@.5X X  # tX'.: # f < = < 7 4 7 7 7 7 7 7 7 < < < 7 < < # ].6X# # $X6XZ.S.6X] # ; 6 # # # # # # # # ",
"# # # # # # # # # @ < [.A.n c ` tX< # oX}.# ; f 7 # < < < < < 5 < < < 7 7 7 < < < # #  XoX# ; tX] W Q A. X4 % 6 < # # # # # # # ",
"  #   # # # # # # R 7X.X/ g y l 6X'.2 '.>X% # f 4 # # # < # < < < # # # # < # = # # % >Xw.4 ].6XJ c N ^ .XtXR f 4 # # # # # # # ",
"7 6 7 7 < 7 4 f 7 oXXXv c l h f v eX,X}.eXl 6 6 f 4 4 4 6 6 6 6 6 7 4 4 4 4 6 f 4 6 h 8X}.5XS.J h h j u g .XOX3 6 4 6 7 4 4 4 4 ",
". #   #     # f < >Xw.g y y 2 6 6 }./ eXrXp $ # # l ~ ~ u # # # # #   y ~ ~ v f 6 # i rX4XE y 6 q 5 6 4 4 q.1X# : # < # 7 < = < ",
"    # # #   # s # oXJ.e 2 y 2 7 2 ,Xi u :X/ < P 5XrXrXrXrX.X1 # # <  XuXrXwXrX,XR # ^ <Xi 4 2 4 < 7 2 < < {.=X# # # # < # # # # ",
"#   # #     # 6 # E 9XOX{.5X}.J 5 J 2 5 w.H.< A.qXqX_.qXqX3X- # @ 1 9XqX_.qXqX_.q.# S.w.= 4 < < v [.,X{.oX1XE # # # # # # # # # ",
"  # # # O   # f < < H.:X( R w.:XoX^ 6 < ^ ;X= ( qX_._._._.U.; O +   R._._._._.0X( # 1XE < < ! oX9XqXE._ / 2 # # # # < # # < < # ",
"# #       @ # 6 < 6 [ 7.< : ; ! ( ;X<X] '.;X1 e 1X).).).)._ # X #   _ 0X).).).R.9 # :XJ.[ 5X<XK.R._.( + ; . # # # # < # # < # < ",
"7 7 7 7 7 4 a 6 P ] q.J.7 h 6 h < 1 ( E.3XK 3 6 e / 8.8._ e 6 u l 4 e _ 8.7./ u 6 6 R 9XE.T q Q E ).7.3 3 3 7 4 7 < < < < 7 7 4 ",
"< 7 < < < # # % # # R.E.= g > : # # ; Z E.1 < f < < < < = < = }.K.4 < : < # ; < = < 5 ;XZ < 7 l 1 J 5 4 # < < 6 6 # # # # < < < ",
"7 < < < < < # # # + p Z O # # +   X ; < ;XZ # f ; < 3 < < < J )./.Z # # 3 7 # # > % J ;X1 > q Z.< 4 7 1 < < # 6 6 # # # # # # 7 ",
"< 7 < < # # # # # # #   O     #   . # % 9.U.4 e < < < < = # q.`.^.8.# # . # # # # < XX3.< e 5 # < 4 3 < < < 4 7 4   # < < < < < ",
"# < # < # #     #   k         #     + l / /.K.h # < 7 ; % # w.^.^.9.# # # = # # 2 }.U.q # ; # ; # # # # < # # 4 4   # # # < < 7 ",
"< 7 < # # # #       #             . # # u W.T.E.H.=Xw.# < $ = C C % # # # S.=Xw.;XK.w ; # # . # # # # # # < # 4 7 # < # # < # # ",
"# < # # # # # # # # # # # @ # # # # # # q K.% 7.~.~.) # % # # # + # # # : / (.~.4.1 h < ; # $ # # # # # # # # 7 6 < < < # # # # ",
"6 4 7 < 7 7 4 4 < 6 6 4 6 6 6 e 8 a 6 8 ` Q.p.|.>.u.u.u f l 4 6 3 4 j y g |.M.3.K.p.E z e 6 6 4 4 3 3 7 7 7 7 7 7 7 7 4 < 7 < 7 ",
"# # # # # # # f < < < < 7 < 4 4 5 y y +.Y.t.A 1 < w M.I.|.4.% J J # 0.T.I.M.9 d q 3.Q.I._ q q % 7 < < # # # # # # # # # # # # # ",
"# # # # # # # f < < 4 7 6 7 4 5 e.2X-Xt.i = 7 5 < E Y.t.Y !.i.Y.P.i.!.Y t.P.A f 6 # 4.L.B.Y.2X8.; < # # # # # # # # # # # # # # ",
"#     # # # 7 k < < 7 6 7 4 6 l G.i q 1 7 < 6 7 ] B.S g 7 C >.A S >.C < y Z M.4.2 # # 0 % 9 r B.0 # # # # # # # # # # # # # # # ",
"  #     # # < k 7 < 7 7 7 4 4 J y.3 7 < < < < e.y.t > e 6 > # 4 4 # # 4 q 1 0 y.4.# # # # : < y.C # + # # # # < #   # # # # # # ",
"#     # # # # 6 7 # < 7 # ; # r N.C 1 < > ; 5.y.0 # % y y # # a f # # s d > g i r.6.    O = x F.r #     # # # # <   # #   #   # ",
"6 6 4 4 4 7 7 6 6 4 7 < 7 < < 5 F m.C 6 6 e N.F l f f b b 4 f b b f f b b a 6 a K b.2 6 6 I N.F q 6 6 4 6 4 6 6 4 4 6 6 6 6 6 6 ",
"# # # # # # # # # # # # #   X @ > ) %.q > ) n.I d   # b b # # b b # # b b > # > r f.F % q ) %.# # # # # < # # 6 4 # < < < < 7 7 ",
"  #     # # # # # # #     < . O x C r.n.b.V.H 6 a   = m m < < m m # # } m 7 > # ; H V.b.n.r.C @ # # # # # # # 4 7 # < < 7 < < < ",
"  # #     # # #             + . # 3 * a.a.B # 6 6 # 0 L } < 7 } } < < | m < 7 < # # %.h.H @ ; #   # # # # # # 4 < # < < # # = % ",
"  #     # # # #     #       # # # < # :.=.% # 4 4 # O ; j # 7 | | < < j < # # < e q B a.& i 1 ; . # # # # # # 4 < # < < > % < % ",
"      .       #   #         # O # O + &.-.0 # 3 # @ # # # # < X.X.< # % < ; # @ 1 , U a., % 1 # # # # # # # # 4 # # # # # # = # ",
"7 < < < 7 < # # # # # # # # # # ; # ; < 5 < # < 3 ; 3 7 < ; 3 X.X.7 # < > < # < ; % U d.V 5 w : < < 7 # < < < 4 4 < < < 7 7 < < ",
"4 7 7 < < < < 6 ; < 7 7 7 7 7 4 6 6 4 3 4 5 6 6 4 4 4 3 3 6 k o.o.f 7 6 3 3 5 g # 5 &.s.D 3 3 < 7 7 7 < < 7 7 7 < 7 7 7 < < 7 < ",
"# ; # # # # # 6 3 # # # < < ; < 3 ; < < < < ; < > < < ; < < 3 } { 7 < 7 < < # a % # B *.r : ; > < ; # # # ; ; < ; < < # < ; < < ",
"O # # # # # # 4 7 # # # # < < < < < < ; < < < < < 3 < < < < < < < < < < < ; ; e 5 + ; > # # # ; # # # < # # ; < ; < < ; ; 7 3 7 ",
"O O O # # # # 3 < # # > < ; < < < ; ; 3 < 3 < < 4 7 3 ; # ; ; : ; < < # ; ; % x 7 O # # # < # ; # # # = # # ; < < 7 7 < 3 ; < 3 ",
"# # O # O # O 4 ; # ; < ; : < < < ; < < < < < ; ; < < # # # 7 # # ; ; ; # # 1 e < @ # # O # # O # < # # ; # < : < # < ; < < < 7 ",
"# # O #     O ; < # # # > 5 # 3 # # # # # # # # # O O # # # # # # @ @ O # # 0 < ; # #     O # # # # < # # < < # # # # # # # ; # "
};
