/* XPM */
static char *_3a0c7a5aabc42baf96456940d98c1d3h0RLid65Wo9e0wEG[] = {
/* columns rows colors chars-per-pixel */
"64 64 106 2 ",
"   c #050505",
".  c #070709",
"X  c #07090A",
"o  c #0C0C0C",
"O  c #10100F",
"+  c #0F0F10",
"@  c #100F10",
"#  c #0F1010",
"$  c #131313",
"%  c #171817",
"&  c #181817",
"*  c #171718",
"=  c #171818",
"-  c #1B1B1B",
";  c #21201F",
":  c #1F1F20",
">  c #1F2020",
",  c #232323",
"<  c #282726",
"1  c #272728",
"2  c #2B2B2B",
"3  c #333333",
"4  c #3B3B3B",
"5  c #424242",
"6  c #4E4E4E",
"7  c #515151",
"8  c #595959",
"9  c #626262",
"0  c gray42",
"q  c #737373",
"w  c #7B7B7B",
"e  c gray51",
"r  c #898989",
"t  c #959595",
"y  c #9B9B9B",
"u  c #A3A3A4",
"i  c #A6A5AC",
"p  c #ABA7A9",
"a  c #ADAAAC",
"s  c #B3AEAB",
"d  c #A7AEB4",
"f  c #ACADB2",
"g  c #B1ADB1",
"h  c #AFB3B8",
"j  c #B5B2B3",
"k  c #B8B5B6",
"l  c #B6B5B9",
"z  c #BCBCBC",
"x  c #BCBFC2",
"c  c #BEC0C1",
"v  c gray77",
"b  c #C7C7CC",
"n  c #C5C9CE",
"m  c #CBCCCD",
"M  c #CBD0CF",
"N  c #D0D1CD",
"B  c #C6CCD2",
"V  c #CCCED3",
"C  c #D2CED3",
"Z  c #CDD1D5",
"A  c #CED4DA",
"S  c #CFD8DE",
"D  c #D4D3D4",
"F  c #D9D5D6",
"G  c #D7D8D4",
"H  c #D9D9D7",
"J  c #D2D6DB",
"K  c #DBD6DA",
"L  c #D5DADE",
"P  c #DBDBDC",
"I  c #E1DDDE",
"U  c #DEE0DF",
"Y  c #E3E2DF",
"T  c #CFD9E1",
"R  c #D5DCE3",
"E  c #DBDEE2",
"W  c #E1DFE1",
"Q  c #D7E0E7",
"!  c #DCE1E5",
"~  c #DAE2E9",
"^  c #E4E4E5",
"/  c #E8E5E6",
"(  c #E6E8E7",
")  c #E4E5E9",
"_  c #E5E5E9",
"`  c #E5E6EA",
"'  c #E6E7EB",
"]  c #E3E9EB",
"[  c #E7E8EA",
"{  c #E7E8EC",
"}  c gray91",
"|  c #E9EBEB",
" . c gray92",
".. c #EBECEB",
"X. c #E8E8ED",
"o. c #E9EAEC",
"O. c #EBECEE",
"+. c #ECECEC",
"@. c #ECEDEF",
"#. c #F0EEEF",
"$. c #EBECF0",
"%. c #EDEEF1",
"&. c #EFEFF0",
"*. c #EFF0F2",
"=. c #F0F1F3",
"-. c #F2F2F4",
/* pixels */
"o.@.@.%.o.o.o.o.{ { { o.O.O.{ ! *   . o o r 6 - $ $ . . . .   . ( | | | | | | [ | ( [ ` [ ] [ ! $ o - * * * $ $ $ $ $ $ $ $ $ $ ",
"$.%.%.o.o.o.| [ ` ` o.o.@.{ ` ! $   . $ - t o * o o o o o o . $ ( | | | | ( [ [ ( ( ( ^ ^ { { ! $ o * $ $ $ $ * * $ o o $ $ o $ ",
"$.O.@.@.@.O.| o.` o.o.o.[ [ ` ^ * $ o o 8 8 $ - o o $ * * $ o o ( | | | ( ( ( ( ( ( ( ^ ` [ { ` * $ $ * $ $ $ * $ $ o o o O $ $ ",
"%.@.@.@.o.[ [ [ o.o.o.[ ` [ ` ! - & - , u - * - $ $ $ * * * . . | | | ( ( ( ( ^ ^ ^ ( ` ` o.o.[ = $ $ * $ $ $ $ $ O o o $ O $ * ",
"%.%.%.o.` ` ` o.o.o.` ` ` o.| ( - * - y q * $ , - o O o $ - $ o | | ( ( ( ^ ^ ^ ^ ^ ( [ [ { { [ , * $ * $ $ $ $ * $ o o o $ o $ ",
"O.$.o.{ ` ` O.o.| | | | @.o...( - * 5 b - * $ - - $ O o o * * * ( | | | ( ! E E ^ [ [ [ | [ { [ - * * & $ $ * * * $ $ O o o o $ ",
"$.o.` o.O.o.| | o.[ | | | | | ( - $ y 5 $ $ $ - - $ . o . * $ o ( | ( ( E P ! ^ ( [ [ [ [ [ o.[ - o o * * * - * * * $ $ $ $ o o ",
"o.o.@.@.@.o.o.[ ^ | | | @.@.@.| - 3 e $ o o o - , $ o $ o $ . o ^ ( ^ U P E ^ ( ( ( [ [ ( ` { ` - . . * $ * * * * * $ $ $ $ o $ ",
"o.%.@.%.@.@.` [ o.@.@.@.@.@.@.( - y 7 $ o o o * , - - - * $ . . Y ! P ^ E ^ ( [ [ ( ( ( ` [ [ [ * . . $ $ $ $ * * $ $ $ $ $ $ * ",
"O.O.@.*.%.%.[ @.@.@.@.@.| @.| ( 5 v 2 - * $ * * - , , - - o o . L L ^ ^ ^ ` [ ( ( ( ( ` ` { { ` $ . o $ $ $ $ $ * $ $ $ $ $ $ $ ",
"%.O.%.%.@.@.@.@.@.@.@.@.@.| | ^ a 0 - * * - * , , , , - - $ o o E ^ ^ ^ ` [ ` ( ( ^ ^ ` ] ] { ^ $ . o $ $ $ $ $ * $ $ $ $ $ $ $ ",
"=.%.@.@.@.=.@.| @.=.@.@.| | ( ( l 3 , * $ - 2 2 , , , - - * $ o ( ^ ^ ^ ` [ [ ( ^ ^ ` ` ] ] ] ^ $ . o * * $ * * * $ $ $ $ $ o * ",
"*.%.[ @.%.@.| @.#.@.@.| ( | | | 8 , - 2 , , - , - , , - * o o O ^ ^ ^ ` ` ^ ( ^ ^ ` ` ` ^ ! ` ! # . $ * $ * * $ $ $ O $ $ $ o $ ",
"=.%.%.%.` o.@.#.@.| | | | | ( P 2 - * . $ * o $ - - 2 - - $ . ; ^ ^ ^ ` ^ ^ ` ^ ( ^ ^ ! ! ! E L o o * * $ * * O $ O O $ $ o o $ ",
"-.-.*.%.| o.@.| | ( | | | | ( ^ - $ .       . o $ - * $ * $ . 2 ^ ` ( ^ ^ ^ ! ! ! ! ! ! ! L R E # . - - * $ $ $ o $ $ $ $ $ $ $ ",
"( ^ P P P P P H G P P H H G G D , * - * * * - - - 2 , - - - , 3 H G G D D Z V m m M Z V V V Z Z , - , , , , , , , , , , , , , , ",
"- - $ $ $ $ * * * - - * - - - - ^ ( | | | | @.| | | | ( ^ | | ^ - * & - - - - - * o o + o o # $ L E L W ^ E E E E E E W E ^ E E ",
"o o o o O $ * * * - * * - - - , ( | | @.@.@.#.#.@.@.@.| | | @.^ & $ $ - - - * $ $ o o O . o o o E W W ^ ` ^ ` ` W ` ` ` ^ ` ` W ",
"$ o o o $ $ * * - - - - , , - - | | | | @.@.@.@.@.@.@.| | | | ^ - * - - $ $ $ o $ * * $ $ * . + L ^ ` ` ` ` ` ` ` ^ ` ` ` ^ E E ",
"w , $ $ $ $ * - - * * * - - - 2 ( | | | | +.+.@.@.@.@.@.| | ( ^ - * - $ $ * * * * - - - - * $ $ E ` ` ` ^ ` ` ` ` | ` ^ ` ^ E E ",
"4 q 6 4 $ $ * - * * * $ * - - - ^ | | | | | | @.@.@.@.@.| | | ^ - * * $ $ * - - - - - - - - $ * ^ ^ ` o.` ` ` ` | o.| ` ^ ^ W W ",
"* * - 3 , * * - - - - - * - - - I | | | ( ( | | @.@.@.@.@.| | ^ - $ o o o $ * - - - - - - , * - ^ ` o.( ` ` ( | | ` o.` ` ` ` ` ",
"* * $ $ $ $ $ $ $ * * - - , - - ^ ^ | | | ( ( | @.@.@.@.| | | ^ $ . . o o $ - - - - - - - - * - ( | | ^ ` ` ` | ` ` o.` ^ ` ^ ^ ",
"* * * - - - * $ $ $ $ $ $ * * - ^ ^ ^ | | | ^ ( | | @.| | @.| ^ o     . . $ - - - $ * * - * $ * | | | | ` ` ` ` o.` ` ` W ` ^ E ",
", , - - * $ * * , - - * $ $ * - ^ ( ^ ^ ( ( ( ^ ( | | | | | | ^ o .   . O * * $ $ . . o $ * o $ ( o.^ ` ` ( ^ ` o.` ` ( ` ^ ` W ",
"- - - 2 , , , - * $ $ * $ * $ - ^ | | I ^ ( ^ ^ ^ ( | | | | | ^ o o . o $ $ * o o . o $ o $ o $ ( o.` | ( ( ( | | ` o.| ` ^ ` ^ ",
", , , , , - - * * * * * * * * - ^ | | ( ^ ^ ( ^ ^ ^ ( ( | | | ^ o o   . o o o o . o $ O . $ . $ ^ ` | o.` | ( | ( @.@.o.` ` ` ^ ",
"2 3 2 - - - , , - * * - - * * - ^ ( | | ( ^ ^ ( ^ ^ ^ ( ( | | ( $ . . . . . . o o $ $ * - - . $ | | ( o.` ` ` ` @.@.@.@.` ` ` ` ",
"- - - - - - , , - - - - - - & - Y ( ( | | ( ^ ( ^ ^ Y ^ ( | | ^ o . . .   . . o o $ o * o o . o | | o.o.` ` ^ | @.@.| @.@.o.| o.",
"- - - - - - - , - - - - * - & - Y ( ( ( | | ^ ^ ( ( ( ^ ^ ( | ^ o   .         . .   o O o o o o | %.o.o.` ` | | @.@.| @.@.@.o.| ",
", , , - - , - - - - - - - - - - Y ^ ( ( ( ( ( Y ^ ( ( ( ^ ^ ( ^ $   .               $ o . . o $ | @.@.@.( ` | | @.@.| @.@.@.| | ",
"2 2 , , , , 2 3 3 2 , , , , , , N F D D D D D D N D D H H D D D - $ % $ $ $ $ $ $ $ - * * * - , F P P P J J G H P H H H H H H P ",
"^ ^ ^ ( ^ ^ ( W E P ^ ( ^ ^ ^ P $ $ $ o o . . . o o $ $ , 2 2 , Z J L J J L L L L L L Z Z A Z V - & - - - - - - - - - * * * 2 * ",
"@.@.@.o.+.| | } ` | @.@.| | | ( $ o $ o .     . o o $ .   . . 1 L ! ! R ! ~ ! ! ! ! R T R R R Z * $ $ - - - - * * - - $ $ * 2 * ",
"| @.@.@.@.| ( ( @.@.@.@.| | | ( - - * * . . . o o . * $ $ o $ * E E L E ! ! ! ! ! E L J R L S B * $ $ - - - - - * - - $ $ * - * ",
"@.@.| | | ( | @.@.@.| | | | | ( - & * $ $ * * $ & - * $ $ * $ . E R R ! ! ! ! E E R A L J A S B * $ $ - & , - - * * * $ $ - * - ",
"@.@.| ( ^ | @.@.@.@.| | | | | ( - $ o . o $ - - - - * - , - o $ L L E ! ! ! E E R A A J J A V B * $ * & * * * * * * * $ $ - $ , ",
"| ( ^ ^ | @.| | | | | | | | | ( * o o o $ * - - & - * & , * . o L E ! ! E R E L Z J A A A Z A Z $ $ $ $ $ * $ * $ $ $ $ $ - $ 2 ",
"` ^ ( | @.@.| | | | | ( | | | | * o o o o * - - - , - - 2 $ o * L E ! ! E E R J L J J L J B A A $ $ $ $ $ $ $ $ $ $ $ $ $ , $ - ",
"! ^ | @.@.@.| | | ( ^ ( | | @.( - $ $ o o * - , , , , , 2 - - - E ! ! E E L J L L J L L A A L A $ o o $ * * $ $ $ $ $ $ $ - $ , ",
"( ` | | | | | | ( ^ ( | | @.@.| $ o $ o $ - , , , , - - - - - - E ! ! E L L J J J J R L J R R J $ $ o O $ $ $ $ , 3 * $ $ , $ 2 ",
"( | | | | | | ( ^ ( ( | @.| @.( - - - - , 2 , - , , , , - * $ $ E E E L L L L L J L L L L R L L $ @ o $ o o $ $ t 3 $ * * - * 2 ",
"| ( ( | | | | ( ^ ( | | | @.@.( 1 , , - , - - - , 2 , - $ o . $ L E J L L L L E E R L L L R L L $ $ o o o $ $ * 9 * $ $ $ - * 3 ",
"( ( ^ ( ^ ( | ^ | | | | | | | ( - * * $ $ o o * - , 2 - o o . $ E L J R E E E E E L J L R L R J $ o o o $ $ $ 3 q * $ * $ - - , ",
"^ ^ ^ ( ( | | | ( | | | | ( ( ^ - $ * $ o o o * * - 2 - $ .   + J J ^ ! ! ^ ! E L L L E L J E J $ o o o $ $ $ w 5 * $ $ * - - , ",
"! ^ ^ ^ ( ( ( ( ( | ( ( ( ( ( P - * * $ o o o $ - * , - -     . D E ^ ^ ^ ^ ^ E R R R E L L E J , o o o o O 7 p 2 $ * * * - , - ",
"! ^ ^ ^ ( ( ( | ( ( ^ ^ ( ^ ^ ^ e , * $ o . o $ - $ & , o     . L ^ ^ ^ ^ ^ ^ E ! E ! L E ! E Z 3 o o o o 2 z 0 - * * * * & 2 - ",
"Z V D D G H H H H G G G D G G b c L 8 1 - - > , , , : 3 - $ $ * b m V D D m m D D D Z m D Z m x , ; , , , y 0 2 2 2 1 2 < 2 4 2 ",
"o . o O * - - - $ $ o $ o o $ * A R R Z L R J L A n J R V A V D $ $ $ * $ $ $ $ $ $ $ $ $ * * - H H H L P ^ H ^ I I I I I I P I ",
"o . . o $ & * * o . . . . o o # R Q R R Q ~ ~ ! Q S R ~ T A J n * o $ $ @ o $ o o $ $ o o $ $ * W ^ ^ ^ ^ ^ | ( ^ ^ / / W ^ ^ ^ ",
". . $ * - , - * * $ $ - $ o . o R R R R Q ~ ~ ~ R R J E R J D b $ $ $ $ $ $ $ $ o $ O * $ O $ * W E ^ | ^ | | ^ ^ ^ ^ ^ ^ ^ ^ I ",
". . $ - - - - - $ o . - $ o . o ! ~ R ~ ~ ! ~ ~ R E L E E R D V $ $ $ $ o O $ O $ $ $ $ $ $ * * E ( | ^ | | ^ ^ | / ^ ^ ^ I W ^ ",
"o o $ - - - - * $ $ o $ * $ o o ! ~ ~ ~ ~ ~ ~ ~ E R J L R J L J $ o o o o $ $ o $ $ $ $ $ $ $ & ^ | ( | ( ^ / ^ ^ ^ / ^ P I ^ ^ ",
"o o * - - - - * . . $ $ o o $ = ! ~ ~ ! ~ ~ ~ ~ E R L J E J J J * o o o $ $ $ $ $ $ $ $ $ o $ - ( | | ( ^ ^ / ^ ^ / ^ I I ^ ^ ^ ",
"o o * - - - - $ . . . $ $ .   o E ~ ~ ~ R ~ ~ ~ R R R L E E D J * $ $ $ $ $ * * $ $ $ $ $ $ $ - ^ | ^ ^ ^ / ^ ^ ^ | I I I ^ ^ Y ",
"$ $ $ * - - - - $ o o o o .   X R ~ R ~ R ~ ~ Q R R L J J E J D * $ $ * * * * * * * $ * $ $ $ - ^ ( ^ | ^ ^ ^ / / I I I W ^ ^ I ",
"$ $ o * - - - * * o o o o .   X R Q Q R R R ~ R E E E J V J L V * * * $ * * * * $ $ $ * $ o $ - W ^ ( ( ^ / | | I I I W ^ ^ I F ",
"- & * * - & - - * * $ .       . R Q ~ R ~ ! R E E E E A V J H D * $ $ $ $ * - $ $ $ * * * * * - W | / ^ ^ | | W I I W W ^ I F D ",
"* - $ * * $ $ $ $ $ o .       . R ~ Q ~ R ~ R E E R R J V J J D - $ $ $ $ * * * $ $ $ $ $ $ * - ^ ^ W ^ ` | W I W ^ ^ W W F F D ",
"- - $ $ $ $ o . o $ $ .       . R ~ ~ Q R ! E R E R L L D C G m - $ $ $ $ * $ $ $ $ $ * * $ * - ^ ^ ^ ` ` ^ W ^ ^ ^ W I F F F D ",
"- - - $ $ o . . . o . o .     . R ~ ~ Q R R E L R R E L J V J D - * * * * & & $ O o $ $ * - , - W W ` ` W W W ^ ^ I I K D C D K ",
"* $ - - * o .       . . . . . o R R R ! R R R L J J L J Z C V m * $ $ $ $ * o . . . o o $ * $ @ W / ^ W I ^ ^ W I I F D C F K I ",
"* $ * $ $ $ .   . o o . .   . o S R R E R R L R J D J J V D V b $ o $ $ * * o . . . . . o . . $ W ` W E I W W I P F D C H K H I ",
"* $ $ $ $ $ .       . .   . . $ d d d h h f f f f f f i i f f u $ o o $ * $ $ o o . . . . . . o l l j l k k k j g p p s a f j s "
};
