/* XPM */
static char *a6a0e78993854ba8a62056439b3043d2ErHg2mxxEOAlZ4QX[] = {
/* columns rows colors chars-per-pixel */
"64 64 238 2 ",
"   c #050505",
".  c #060A04",
"X  c #090B06",
"o  c #060608",
"O  c #090709",
"+  c #070909",
"@  c #0B0B0B",
"#  c #080607",
"$  c #0A1305",
"%  c #0C1B05",
"&  c #0D120B",
"*  c #0F1A09",
"=  c #071404",
"-  c #11140D",
";  c #121C0C",
":  c #141D08",
">  c #0E0D11",
",  c #100F10",
"<  c #0F1110",
"1  c #131313",
"2  c #151B13",
"3  c #191C14",
"4  c #181718",
"5  c #1C1C1C",
"6  c #181718",
"7  c #201F1F",
"8  c #0C2305",
"9  c #0D2906",
"0  c #122306",
"q  c #14230B",
"w  c #1A230D",
"e  c #152B0A",
"r  c #1A2B0C",
"t  c #142C07",
"y  c #133408",
"u  c #1C330B",
"i  c #19370A",
"p  c #1B2414",
"a  c #1C2B13",
"s  c #1E231B",
"d  c #192617",
"f  c #1D3511",
"g  c #263A0C",
"h  c #21231D",
"j  c #222C1C",
"k  c #242A14",
"l  c #233515",
"z  c #25321B",
"x  c #2A3A1A",
"c  c #343D14",
"v  c #1F1F20",
"b  c #201F20",
"n  c #1F2020",
"m  c #232323",
"M  c #252A24",
"N  c #292B25",
"B  c #292729",
"V  c #2B2B2B",
"C  c #272728",
"Z  c #312E2F",
"A  c #2B3324",
"S  c #2D3B23",
"D  c #2E322C",
"F  c #273921",
"G  c #31332E",
"H  c #343D2B",
"J  c #343A28",
"K  c #2F2E30",
"L  c #312F30",
"P  c #2F3230",
"I  c #343333",
"U  c #363A33",
"Y  c #3A3B36",
"T  c #393639",
"R  c #3B3B3B",
"E  c #383737",
"W  c #403E3F",
"Q  c #1B4708",
"!  c #1E4410",
"~  c #254A0C",
"^  c #35470D",
"/  c #27550D",
"(  c #264212",
")  c #254911",
"_  c #2B4C15",
"`  c #2B441B",
"'  c #2C4716",
"]  c #374B19",
"[  c #2D5314",
"{  c #355918",
"}  c #335C0F",
"|  c #376517",
" . c #3D7815",
".. c #2E700C",
"X. c #334525",
"o. c #3C4B2C",
"O. c #374827",
"+. c #3B542A",
"@. c #3A5526",
"#. c #3D4735",
"$. c #334829",
"%. c #3D6221",
"&. c #415118",
"*. c #486717",
"=. c #437C1A",
"-. c #44761C",
";. c #597716",
":. c #55671B",
">. c #65791A",
",. c #445829",
"<. c #42433D",
"1. c #444A39",
"2. c #475535",
"3. c #52583B",
"4. c #474E2D",
"5. c #476927",
"6. c #4A7627",
"7. c #54792A",
"8. c #4D6535",
"9. c #556736",
"0. c #5A7637",
"q. c #5A692A",
"w. c #677837",
"e. c #646D3F",
"r. c #3F3F40",
"t. c #423E42",
"y. c #3F4140",
"u. c #434343",
"i. c #494648",
"p. c #4C4B4C",
"a. c #484945",
"s. c #4E534A",
"d. c #52544D",
"f. c #535A47",
"g. c #4F4E50",
"h. c #544E53",
"j. c #545354",
"k. c #5C5B5C",
"l. c #595757",
"z. c #504D4F",
"x. c #556242",
"c. c #5D6755",
"v. c #62674A",
"b. c #657844",
"n. c #60615F",
"m. c #677553",
"M. c #757659",
"N. c #5E5D60",
"B. c #625E62",
"V. c #646363",
"C. c #696569",
"Z. c #6D6C6C",
"A. c #676968",
"S. c #72786A",
"D. c #757374",
"F. c #7C7B7B",
"G. c #7B7779",
"H. c #716E6E",
"J. c #398B11",
"K. c #488819",
"L. c #54881C",
"P. c #479616",
"I. c #51971B",
"U. c #68921B",
"Y. c #65AC1F",
"T. c #588828",
"R. c #589627",
"E. c #5A8432",
"W. c #56902A",
"Q. c #698526",
"!. c #66972C",
"~. c #688935",
"^. c #689636",
"/. c #798F35",
"(. c #5CA724",
"). c #67A828",
"_. c #68B926",
"`. c #77B82A",
"'. c #78A836",
"]. c #76AE31",
"[. c #5BBD1F",
"{. c #69C325",
"}. c #77C82A",
"|. c #7CD72D",
" X c #769546",
".X c #738B47",
"XX c #7CAD47",
"oX c #7A836B",
"OX c #84943C",
"+X c #82912A",
"@X c #85BB38",
"#X c #90A536",
"$X c #A5B33A",
"%X c #84CA2A",
"&X c #89CA33",
"*X c #95C73A",
"=X c #97D738",
"-X c #8ADB2E",
";X c #A4CF38",
":X c #9BEB2E",
">X c #90E830",
",X c #A6F634",
"<X c #B6F935",
"1X c #AFEB34",
"2X c #CAEF31",
"3X c #899554",
"4X c #8AA747",
"5X c #97AE4C",
"6X c #A1BB47",
"7X c #ACB353",
"8X c #868C72",
"9X c #91A96E",
"0X c #ABB46D",
"qX c #9CD24A",
"wX c #B1CE50",
"eX c #B9F04C",
"rX c #B4C967",
"tX c #D1EF4D",
"yX c #E8F74E",
"uX c #C4CF71",
"iX c #CEEA71",
"pX c #F1FA68",
"aX c #C8D651",
"sX c #898988",
"dX c #969493",
"fX c #ACB291",
"gX c #BEBABB",
"hX c #B6B0AC",
"jX c #BFC09C",
"kX c #D0CC93",
"lX c #EAF080",
"zX c #CAD6A8",
"xX c #FCFDA3",
"cX c #C7BBC5",
"vX c #D4CCCA",
"bX c #D1CACB",
"nX c #FDFEEF",
"mX c #F6F7C0",
/* pixels */
"9Xp.g.l.i.V u.R D.A.m 6 p +.#.@ o @ 6 1 6 B @ #               1 K E I B 5 1 @ ; q a f L.L.= $ . = 8 8 8 9 e & D dXdXsXsXD.u.1 m ",
"k.E I G l.V R z.Z.sXI 1 d #.c.2.p b V 6 m R 6 1 @ @ @ @ @ @   1 K I E E K C ; s ` x A o.N   % t y 8 8 8 y 0 @ N 8XF.G.D.l.m 1 m ",
"u.m m b I l.l.i.V F.6 m j.9Xb.eXrXV.m 6 R B 1 1 @ @ @ @ 1 @   1 V R k.A.p.Y z R.T.%X'.w.7.t Q t * % 8 8 8 % @ m Z.H.Z.n.R 1 1 5 ",
"l.l.p.B @ q a X #   @ 1 l.qXo.8.b.a.5 C R 6 1 1   @ @ 1 1 @   1 E sXcXbXcXZ.x ).:X,X<X<X`.} ;.*.:.^ ~ 0     @ m V.V.k.s.2.@ @ 5 ",
"Z.R 8Xu.5 X 8 % X o   m dX5.).N 0.iXb.Y 6 1 1 @   6 i.p.j.l.k.A.B.hXcXcXbXhXH !.,X,X<X,X%X;.;.>.>.^ g ( $ # # m l.m.5Xw.,.@ ; j ",
"u.G.u.c.<., X 9 $ @ H d.<.B 5.4.&XwX~.m B I E R i.m i.p.p.p.l.A.V T T I I Z f.5.=XtXiXiXiXfX3XQ.Q.] g c g X X h a.0.8.H h - @ 5 ",
"<.s.sXp.1.R s.; @ H +.j a #.u.6XtXpX7Xm B E R y.p.m R i.p.p.p.A.6 6 , @ @ - k / ).yXpXpXxXnXzXU.L.^ g w #       #         X w x ",
"8.~.b.j.d.c.V ` @ F H y  .x.w.1.e.9Xs.5 m I R R u.5 R R u.i.p.A.5 7 1 @ X @ 5 a ,.3X3XrXpXnXzX| -.&.k                   . ; u { ",
"1.E.f.Z.8.m.m p.P R +.t p 9.<XwXoXi.i.5 m V E R R 5 R R u.u.i.B.Z L 6 , @ @ 1 6 m p.f.m.5XiXmXwXiXuXJ                 . = ; e _ ",
"u.E A.A.^. XU 5 5 2 X.+ 1 L 2.rX;X<.i.m h N I E R 5 R R R u.u.j.u.z.E I 6 @ 1 6 m a.d.f.f.k.vXkXkX3X5 #       . X   X = % % 0 r ",
"V.u.y.E 1.fX9X9XS.oXI * a !.rXwX<X*Xb.h 5 C V I I 6 E E E R R i.h.B.h.t.5 @ 1 1 m u.a.i.i.s.hXkXhXv.6   # q 0 % % % % % = $ = 8 ",
"# 6 n B B <.R.6.+.) 3 O.^.eX@X~.&X=X1X*.d 5 m m m @ 1 1 1 6 6 6 h.C.l.R 6 @ 1 @ m R R R R <.hXhX0XM.h   * I.K.| | } [ t $ X # $ ",
"= . # r a.p.m h a q E e  .).V V #.4.#.l 8 .                 @   t.j.R B @   1 @ @ , - 1 p 5.rXlXyX2XQ.. t _._.(.L.=.| e % =   . ",
"y * q p | XXm.j.V.H.6 % Q a & 2 | a 1 # % %       @ @ @ @ 1 5   1 5 @ @     1 5 @   X - @.6.7XiX;X).U.Q Q -X|.R.6.6.-.g 8 $ . X ",
"u * 3 { -.=. .h d w X $ 0 : $ i * O     . 8 .     @ @ @ 1 5 m     @         @ 6 @     @ 1 s ,.w.U.U.;./ ..2X-X,.H ,.(.~ 0 % # # ",
"r @ a  .x l K._ _ ) % % 0 & + @ X @ @     9 =     @ @ 1 6 m m @ m p.4 @ @     @ @ @ @ 6 z R.=X1X2XyX$X[ ..2X>XW.o.O.6.) : X # # ",
"g 1 z ) : p J.; @ @     @ @ @ @ @ 1 @   . t $   @ 1 1 6 v m m @ 5 I 4 @ @     @ 1 4 m 1.rXqX&X:XtX7X#X^ ..2X-X}.(.5.%.a & @ X . ",
"`.D ~.} $ % X           @ & r 2 3 6 1   % y #   @ 1 6 5 m m 5 @ 6 6 1 @ @     1 6 5 B 0.XX9.&X:X;X2X#Xg u *.~ g i i u r w * $ . ",
"R.B ^.} X               @ & 1 6 ` -.=.% 8 $       @ < 1 6 6 1 @ 6 6 1 @ @     6 5 m N Y 1.&X|.-X`.).L.* i / / w q u ) [ [ ( 0 % ",
"@.C ].} X             @ 1 1 6 6 5 s s < C V B K I I I <       @ 6 1 1 @ @     6 5 m V o.'.-X{.W.R.[.P.y ! P.P._ k 3 a l _ ( 0 % ",
"C A }.} @             @ 6 6 6 5 v v 1 @ I Y R R u.i.R 1       @ 1 @ @ @       1 6 5 m h O.(.| z M ' _ a [ _._.6.R.L.| [  . .i t ",
"@.X.5.p @             @ 6 6 5 5 m 5 @ 1 V E R R R R R @         E R u.u.R E B @ p.N.A.A.S.0X6Xd.p.d.d.#._ _.{.{._._.I. .P.K.i t ",
"_.).O._ &             @ 5 5 5 m m 6 @ 1 V I E E R E I @         R u.i.u.u.R 6 @ R p.p.d.m..X;X*X Xx.x.~.| (.R.W._._.=.' _ _ : % ",
"5.T.X.( g u u - @ @   @ 6 5 5 m 5 6 @ 1 V I I E E E I @         E R i.u.R B @ @ R <.i.p.f.4X'.'.=X@X*X@X|  . .(.!.E.O.A C 6 X o ",
"      S E.^.^.1.R R m     @ @ @ #     @ B I I I E I V @         I R R R V 5 @ @ E u.u.u.u.u.#.8.~.'.'.!.e $ q .XuX0Xm.d.i.m     ",
"      m I I E U R R B @ 6 m m m m 5 & @ m B B B V B m 1 @       I E E V m 6   @ E R R u.u.u.I B D D Y #.&   X I v.l.a.1.R D R E ",
"@ @   m E E E T Y R B @ m m m B I I 6   @ @ @ @ @ @ 1 6 @ @     V I I B m 1   @ I R R R R R V m C B B I @   o 4.6X3X.X'.2.o.^.=X",
"@ @ X C E E E E E E m @ m B V B I R 6           @ 6 6 1 @ @     B V V m 5 1 @ @ G E E R R R m 6 6 4 1 1     $ !.4X X@X&X>X}.:X,X",
"@ @ @ B E E E E I I m @ m B R I R t.m @ @ @ @ @ 1 6 6 1 @ @ @   m m m 5 6 @ @ @ B V V V V N j . .       X X $ ).:X,X,X,X:X_.%X-X",
"1 @ @ m I E I E I V 5 @ 5 Z R u.i.u.m @ @ @ @ 6 1 6 6 1 @ @ @                   @     @ @ @ $ $ X = = = = = $ ).-X`.^.7.o.N D ,.",
"@ @   m V I G I I V 6   6 E u.!.i.i.m @ 1 1 1 6 1 6 6 1 @ @ @                 @ @ @ @ @ 6 @   . . . . . . .   & 1 > > , 1 6 B G ",
"@ X : k 5 n h h h 5 @   s 8.!.`.u.t.m 6 6 5 b B 6 6 1 @ @ @ @                 @ @ @ @ < 6 X                 @ m 5 o       @ z -.",
"@ ; * @ X X . # @ X X X l =.I.W.V K 6 @ 6 m m B 1 @ @       @ @ @ @ @ @ 1 @   @   @ @ m E 1 @ @ @       @ @ 1 V 6 6     # 0 [ 5X",
"@ q - r % $ q * * : e $ % % e j D R z.l.1 1 1 1 6 I m 5 6 5 @   @ @ @ @ @ @ @ 1 1 6 6 B I 6 @ @ @       @ @ @ I I @ . X $ 0 w c.",
"@ w r @ X e t * ) / ~ 8 8 $ a <.i.p.g.z.5 B V 5 6 I B m L m 1   @ @ @ @ @   @ 5 6 6 5 m B 6 @ @ @ @     @ @ m 6 % % = = = @ E g.",
"& r r a $ * f l f / ..t 9 % 3 u.i.p.p.p.5 Z B 6 1 B m m I 6 6 # @ @ @ @ @   @ 6 m 6 m m B 6 @ @ @ @ @   @ @ h ` u e $ # C m @ I ",
"q q $ @   : f p p a ..y 9 % 3 0.i.i.i.E 6 V m 1 @ m m m I m 6 @ 6 5 6 1 @ @ @ 6 B 5 m m m 6 1 @ @ @ @   @ V Z.@.k X   m 1 + + 7.",
"@ ; & @ $ ~ f 2 r ) ~ $ $ = 3 2.u.i.R V 1 m 6 @ @ m m m E m 5 @ C 6 6 5 1 @ @ 6 m m m m m 1 1 @ @ @ @   m p.6 V j.# 6 5 O $ q %X",
"O.6.X.j C 7.H !.8.].+.O $ $ 3 2.E u.u.V @ 6 6 @ @ m m m E m 5 @ m B 6 6 6 @ @ 5 5 V 5 m m @ @ @         @ @ @ @ m @ V @ X e r ].",
"` ` 5 f 6.H o.5.H P S 8 8 X ' o.M I I V @ @ @   @ 5 m m m B 5   O 1 1 K B @ @ @ @ 6 @ @ @ 6 B E E E m @ 1 1 6 1 B U ; e @ % % ( ",
"5 F ] j x !.T.6.T.,.5.Q % % $ +     6 R p.R R R R @       @         o B I 6 @ @ @ @ > @   V E E I I I I 6 6 1 5 1.q $ u & & q % ",
"6.6.E.H j W.6.6.@.7.X.t = .         5 E p.R V V V @     @ @           m B 6 6 5 5 5 6 <   j.A.A.B.l.u.I 5 6 6 R s q = q - @ X X ",
"@.N D +.[ ,.X.A !.}.m X #           m C I I B V V @ @ @ @ 1           R 5 @ 6 5 m 5 1     m I E R p.p.i.R m 6 E 6 X   @ @ @ X @ ",
"A 5.W.X.6 S C S `.`.o.&             5 m B B B B B @ @ @ 6 6         @ m 6 @ 6 V V m m I 6 1 m B B B B V B V r.m 1 @   @ @ @ @ @ ",
"5.X.X.x 1 s S %.).R.{ X > @ @ @     6 m m m B B B @ @ @ 6 m @         6 1 O 1 k.k.k.A.G.k.R 6 m i.i.E V 5 1 k.m 1 O   @ @ @ ; ; ",
"p 3 a 1   # $ t i e - @ m h m m 5 6 1 6 m m m m m @ @ @ @ 6 1 V I V 6 6 @   1 p.V.V.B.p.V B B V I t.K V m 1 p.@ @       X @ X O ",
"+.V V -   @ w ( _ p 1 B E E R R R R 6 1 6 5 5 5 m 6 V E R u.6 5 5 5 5 6 @   @ V R u.j.V.l.m R D.D.D.A.k.i.  V       < 6   # X   ",
"2.Y s 1 @ 6 3 ` A 5 1 m B B B V V V 1           @ 3 m m m 5 @ E R W E B 6 o @ V I I I I I m m V l.p.j.I V @ V @     @ @ @ X -   ",
").O.s 6 @ 6 s h M 3 @ m m B B B V V 6           @ h M m m B @ l.D.G.G.D.N.V @ B V V V I V 5 m R E R j.I V @ 1 I     @ 6 @ @   @ ",
"+.S j 6 & p j s 6 1 @ 5 m m C B B B 6 @ @ - 1   ; %.{ j 3 , + m V V V B 5 @ @ B E j.N.B.B.m R j.u.j.i.R R @ 1 I @     @ @ B @ m ",
"+.o.j p @ p a p 1 @ X h m m m B B B 1 6 5 m m @ r =.=._ 1 @   I I B B m 6 @ @ m B m M m R 6 m R j.p.R u.R @ V @     1 m V V 1 1 ",
"O.A s p @ p 3 @ & @ @ h m m m m B C - h N A C j ' =.=._ &     5 E E I V 6 @ @ m E V j 6 6 5 m V m m I R V @ @ @ @   1 6 6 B 1 1 ",
"A A s - # X # @ 1 @ @ 5 5 7 m m m m l !.].].^.8.q./.].6.m 6   5 m B B m m @ @ m V V @ G A.A.R R R p.E V m 6 u.@     @ I 5 j.1 6 ",
"O.M 1 X         & & - # o         w L.{._._.T.q.OXOX/.2.I V @ 6 m m 5 6 1 @   5 m B @ @ F.V.Z.D.F.dXsXB m @ l.@     @ 6 6 6 1 1 ",
"h h 2 &       X - & & X @         z !.@X`.).x /.6X;X4Xv.Y I # @ 6 m 6 1 @ @   m I 5 # 1 V E R u.p.j.i.6 1 1 m @ @   @ 6 5 m I B ",
"& p w w #     + & - @ @ @         D 3.w.w.5.k 6XtXtXrXrX4Xx.  1 B Z i.l.p.V , @       @ B E E j.k.p.k.6 5 5 5 u.i.1 @ 1 1 I Z.B ",
"6 5 1 @ o     . * $ @ @ @ +       I <.1.4.c k #X1X1X5X*X-X).$ @ R I D Y 4.R k.- , @   @ B I l.D.H.Z.Z.6 5 l.k.j.l.p.R @   @     ",
"h h - @ - ; @   . .               I Y V x ' 3 /.1X;XOX*X|.).%   u.V.l.gXvXgXgXV 1 @     m E j.E E R E # @ E u.E I i.B 1 @ 1 @ @ ",
"X.z ; X z X.x p 2 & X   @ @ @ @ @ m m 3 u ~ w ].%Xw.~.@X}.R.X   R V.D.dXdXbXvXp.5 @   @ m Z V U I E I   @ m R V V R I 5 i.m @   ",
"S s # X s A X.] ( 3 1 o > 1 @ @   @ @ @ & 0 r `.Q.3.3.8.6.O.    B j.i.u.F.bXvXZ.p.U 1 & m A N I 9.!.G     m B B m m R p.i.V     ",
"1 @     5 S @.S x z z # , 1 1 @   @ 1 6 3 w 3 w.3.<.<.G V m     m K u.E I F.hXM.5XOX/.;.| N Z C o.L.j o   5 m m m m 5 @ @ C 1   ",
"      X s ` { ] A ] h @ & 6 6 1 @ 1 1 1 - w r ,.1.R L m m 5     m C V r.Y U M.3XaXwX#X+XQ.u w &.p u % X   1 6 1 6 1 1 5 I B u.V ",
"X #   @ A h j j 5 s N 1 3 1 6 1 @ 1 1 @ @ & & & @ - @ @ @       M 5.N B Y Y Y 4.OX$X/.z k & &.w @ % % @   @ m m h s m m m v 5 6 ",
"o   X @ z z z s 5 ` @.q l p 6 1   @ 1 @ @ @ @     @ X           j O.N C B R u.3 1 6 x c @ @ c 1 1 r 0       m E #.2.2.I U Y R R "
};
