/* XPM */
static char *_4dac9f2fe2d45c3823ee19e1687dd81KDbGPB94rIF1B8FI[] = {
/* columns rows colors chars-per-pixel */
"64 64 4 1 ",
"  c #EFEFEF",
". c #F1F1F1",
"X c #F4F4F4",
"o c #F8F8F8",
/* pixels */
".........X...X..XXXXXXXXXXXXXXXXXXXXXXX.X...X...................",
"........XX.XXXXXXXXXXXXXXXXXXXXXXXXXXXXXXXX.XX....X.............",
"........XXXXXXXXXXXXXXXXXXXXXXXXXXXXXXXXXXXXXXXX................",
".....XXXXXXXXXXXXXXXXXXXXXXXXXXXXXXXXXXXXXXXXXXXXX.X............",
"XXXXXXXXXXXXXXXXXXXXXoooXXXXXXXXXXXXXXXXXXXXXXXXXX.XX...........",
"XXXXXXXXXXXXXXXXXXXoXoooXXXXXXooXoXXXXXXoXXXXXXXXXXXX..X........",
"XXXXXXXXXXXooXXoXoooXXXoXXoXXoooooooooXXXXXXXXXXXXXXXX.XX.......",
"XXXXXXXXXXoooooXooooXXXoXooooooooooooooXXXXXoXXXXXXXXXXXXXX.....",
"XXXXXXXXXoooXoXXoXoXXooooooXXXoXoXoXoXXXXXooXXXXXXXXXXXXXXXX....",
"XXXXXXXXooooXXXXXXooooooooooooooXooooooXoooooXXXoXXXXXXXXXXX....",
"XXXXXXXooooooooXXoooXoooooooooooooooooooXoooooXXoooXXXXXXXXXXXX.",
"XXXXoXooXoooXoooooooooooooooooooooooooooooooooXXooooXXXXXXXXXXXX",
"oXXXXXoooXXXooooooooooooooooooooooooooooooooooXoooXXXXXXXXXXXXXX",
"ooXoXooooooooooXooooooooooooooooooooooooooooooooooXoXXoXXXXXXXXX",
"oooooXoooXoXooooooooooooooooooooooooooooooooooooooXXooooXoXXXXXX",
"ooooXXoooooooooooooooXooooooooooooXoooooooooooooooXoooooXXXXXXXX",
"XXXoooooooXoooooooooooooooooooooooooooooooooooooooXooooXXooXoXXX",
"XooooooooooooooXoooooooooooooooooooXooooooooooooooooooXoXXoooXXX",
"oXooXXooooooooooooooooooooooooooooooooooooooooooooooooXXXXooXXXX",
"ooXoooooooooXooooooooooooooooooooooooooooooooooooooooooooXoooXXX",
"XXooooooooooooooooooooooooooooooooooooooooooooooooooooXXXooooXXX",
"ooooooXoooooXoXoooooooooooooooooooooooooooooooooooXooooooXXXoooX",
"oXoooooooooooooooooooooooooooooooooooooooooooooooooooooXooooooXX",
"XooooooooooooooooooXXoooXoooooooooooooooooooooooooooooooooooooXX",
"XooooooooXooooooooXooXoooooooooooooooooooooXoooooooooooooXooXXXo",
"XXooooooXoooooooooXoooooXooXoooooooooooooooooooooooooooXooooXXXX",
"XoXooooXooXXoooXooooooooooXoooooooooooooooooooooooooXXXXooXXXXXX",
"XXXoooXoXXXXoXoXoooXXXoooooooXooXoXXooXoXooooXooooXoooooXXXXXXXX",
"oooooooooooooXoooooooooooooXXoXoXXoXoXXoXooXXoXXoXooooXooooXooXX",
"ooooXoXXooooXooXXXooXooooooooXoooooooooXooXoooXooooXXXoooXooooXX",
"oXooooXXXoooXXoXooXXoooXoXooXXXoooooXXooooooXoooXooooooooXoooXoo",
"XoooXXXooooXXXoooXooXXoXXXoooXXXXooooooooooooooooooooooXoooXXXXo",
"oooXoXXXXXoooooXoXoooXXXooXoXXoXoXXXoXooooooooooooXoXXoXoXXXXXXo",
"XooooooXoXooooooooXoooooXXXoooooooooXXoooooooooooooXooXoXooXXXXo",
"XoXXooXoXoooooooooXooXoooooooXooooooXoXoXoooooXoooooooXoooooooXX",
"oooooooXoooooXXooooXoXoooooXooooooooooooXooooooooooooooXooooXXXX",
"ooooooooooooooXoXooooXooooooooXXoooooooooooooooXooooooooooXXXXoo",
"XXoooooooooooXooXooXoooooooooXXoooXooooooooooooooooooooooooXXXoo",
"oooooooXXoooooXXoooooooooXXoooXoooooXooooXoooooooooooXoXooXXoooo",
"ooXXooooXoXoooooooXooXooXXoXooooXooooooooXooooooooXXXXoooXXoooXX",
"oXooooXooooooXoXXoooXooXooXXoooooooooXXXoooXoooooXooXXoooXXXoooo",
"ooXoooXoooooXoooXXoooooooXXXooooXoXoooooooooooooXoXXoXoooXXXoXoX",
"oooXXXooooXoooooooooXooXooXXoXooooooXXooooooXoooooooXoooooXXoXXX",
"XXoooXooXoooXoXoooooXoooooXXXXooXoXoooooooooooooooooXXooXXXXXXXX",
"ooXoooooooooXoXXoooooooooooooXXooXooXooooooooooXooXooooXoooXXXXX",
"XXoooooooXXooXXXoXXXoooXoooXXXXXooXooooooooooooooXooXoooXoXXXXXX",
"ooXXooXXXXXooooXXXXoooXXoXoXXXXooXXXoooXooXoXXoXXXXXooXXoXXXXXXX",
"ooXXXXXXoXooXXoooXXoooXXXXXoooXooXoooXoXoooXooXXXXXooXXXXXXXXXXX",
"ooXXXooooXoXXXooooXoooooXooXXXooXXXXXoXXooXXXXooXXooXXXXXXXXXXXX",
"XoXXooooXoXXoXooXXXoooooXXXXoXooooXooXoXXoXXoXooXXXXXXXXXXXXXXXX",
"XXXXXXooXooooXooXXXXXXooooooXooooooXooooXXooooooXXXXXXXXXXXXXXX.",
"XXXXXXXXoXXoXoooXXoXXXXoooooXooXoooXooooXooooooXXXXXXXXXXXXXXXX.",
"XXXXXXXXXoXXooXXoXooXXXXoooooooooooooXXXoooXXXXXXXXXXXXXXXXX....",
"XXXXXXXXXXXooXXXXXXoXXXXXXXooXoXooooXoXXooooXXXXXXXXXXXX.X......",
"XXXXXXXXXXXXXXXXoXoXooXXXXXXXoXXXoXXXXXXXXXoXXXXXXXXXXXX.X......",
"XXXXXXXXXXXXXXXXXXXXXXXXXXXXXXXXXXXXXXXXXXXXXXXXXXXXXXXX........",
"XXXXXXXXXXXXXXXXXXXXXXXXXXXXXXXXXXXXXXXXXXXXXXXXXXXX............",
"XX.XX.XXXXXXXXXXXXXXXXXXXXXXXXXXXXXXXXXXXXXXXXXXXXXX........   .",
".........X.XXXXXXXXXXXXXXXXXXXXXXXXXXXXXXXXXX..............     ",
"..............XXXXXXXXXXXXXXXXXXXXXXXXXXXXXXX.....X.......      ",
"................XX.XXXX.XXXXX.XX..XXXXXX..............  .       ",
"  .....................XXX........XX................   .        ",
"   . ... ........................................  .            ",
"        .  .......................... .........                 "
};
